<svg width="26" height="27" viewBox="0 0 26 27" fill="none" xmlns="http://www.w3.org/2000/svg">
<path opacity="0.5" d="M1.5 13.5C1.5 8.07884 1.5 5.36827 3.18414 3.68414C4.86827 2 7.57884 2 13 2C18.4211 2 21.1318 2 22.8158 3.68414C24.5 5.36827 24.5 8.07884 24.5 13.5C24.5 18.9211 24.5 21.6318 22.8158 23.3158C21.1318 25 18.4211 25 13 25C7.57884 25 4.86827 25 3.18414 23.3158C1.5 21.6318 1.5 18.9211 1.5 13.5Z" stroke="black" stroke-opacity="0.5" stroke-width="3"/>
<path d="M16.532 12.9527H12.7923M12.7923 12.9527H9.05273M12.7923 12.9527V9.66699M12.7923 12.9527V16.2384" stroke="#7C7C7C" stroke-width="3" stroke-linecap="round"/>
</svg>
