<svg width="21" height="18" viewBox="0 0 21 18" fill="none" xmlns="http://www.w3.org/2000/svg">
<path fill-rule="evenodd" clip-rule="evenodd" d="M13.6568 0.75H7.09023L5.21008 3.53437H0.972776L0.118164 4.35938V16.425L0.972776 17.25H19.7742L20.6289 16.425V4.35938L19.7742 3.53437H15.537L13.6568 0.75ZM6.13621 5.18438L8.01635 2.4H12.7306L14.6108 5.18438H18.9196V15.6H1.82739V5.18438H6.13621ZM7.80967 9.825C7.80967 8.45814 8.95759 7.35 10.3735 7.35C11.7894 7.35 12.9373 8.45814 12.9373 9.825C12.9373 11.1919 11.7894 12.3 10.3735 12.3C8.95759 12.3 7.80967 11.1919 7.80967 9.825ZM10.3735 5.7C8.01356 5.7 6.10045 7.54679 6.10045 9.825C6.10045 12.1032 8.01356 13.95 10.3735 13.95C12.7335 13.95 14.6466 12.1032 14.6466 9.825C14.6466 7.54679 12.7335 5.7 10.3735 5.7Z" fill="#A1A5C1"/>
</svg>
