<svg width="25" height="21" viewBox="0 0 25 21" fill="none" xmlns="http://www.w3.org/2000/svg">
<path d="M0.564942 8.97898C0.564942 9.38104 0.937747 9.707 1.39762 9.707C1.85749 9.707 2.23029 9.38104 2.23029 8.97898H0.564942ZM2.58946 13.9552C2.41348 13.5837 1.92639 13.4073 1.50152 13.5612C1.07666 13.715 0.874896 14.1409 1.05088 14.5124L2.58946 13.9552ZM14.423 19.9185L15.0248 19.0295L13.5916 18.2878L12.9898 19.1769L14.423 19.9185ZM9.97504 19.0295L10.5769 19.9185L12.01 19.1769L11.4081 18.2878L9.97504 19.0295ZM12.9898 19.1769C12.7758 19.4929 12.224 19.4929 12.01 19.1769L10.5769 19.9185C11.4358 21.1872 13.5641 21.1872 14.423 19.9185L12.9898 19.1769ZM10.8346 1.45605H14.1653V2.00014e-07H10.8346V1.45605ZM22.7696 8.97898V9.94968H24.4349V8.97898H22.7696ZM7.83974 16.4937C6.44591 16.4727 5.71557 16.3952 5.14309 16.1879L4.50579 17.5331C5.39949 17.8567 6.4174 17.9285 7.81105 17.9495L7.83974 16.4937ZM1.05088 14.5124C1.6988 15.88 2.94157 16.9666 4.50579 17.5331L5.14309 16.1879C3.98692 15.7691 3.06836 14.9661 2.58946 13.9552L1.05088 14.5124ZM22.7696 9.94968C22.7696 11.0903 22.7692 11.9094 22.7187 12.5557C22.6688 13.1955 22.5726 13.6127 22.4104 13.9552L23.949 14.5124C24.2093 13.9629 24.3245 13.3688 24.3802 12.6548C24.4354 11.9475 24.4349 11.0704 24.4349 9.94968H22.7696ZM17.1888 17.9495C18.5825 17.9285 19.6004 17.8567 20.4941 17.5331L19.8568 16.1879C19.2844 16.3952 18.5539 16.4727 17.1601 16.4937L17.1888 17.9495ZM22.4104 13.9552C21.9315 14.9661 21.013 15.7691 19.8568 16.1879L20.4941 17.5331C22.0583 16.9666 23.3011 15.88 23.949 14.5124L22.4104 13.9552ZM14.1653 1.45605C15.9985 1.45605 17.315 1.45682 18.3419 1.54218C19.3564 1.62652 20.0019 1.78825 20.5165 2.06398L21.3867 0.822494C20.5663 0.383009 19.6359 0.187141 18.4995 0.0926729C17.3755 -0.000766691 15.9663 2.00014e-07 14.1653 2.00014e-07V1.45605ZM24.4349 8.97898C24.4349 7.40432 24.4358 6.1722 24.3289 5.18947C24.2209 4.19591 23.9968 3.38236 23.4942 2.66518L22.0743 3.42597C22.3897 3.87592 22.5746 4.44031 22.6711 5.32729C22.7687 6.2251 22.7696 7.37612 22.7696 8.97898H24.4349ZM20.5165 2.06398C21.1514 2.40415 21.6852 2.87086 22.0743 3.42597L23.4942 2.66518C22.9679 1.91416 22.2457 1.28272 21.3867 0.822494L20.5165 2.06398ZM10.8346 2.00014e-07C9.03358 2.00014e-07 7.62436 -0.000766691 6.50037 0.0926729C5.36399 0.187141 4.43349 0.383009 3.61323 0.822494L4.48337 2.06398C4.998 1.78825 5.64352 1.62652 6.658 1.54218C7.68486 1.45682 9.00133 1.45605 10.8346 1.45605V2.00014e-07ZM2.23029 8.97898C2.23029 7.37612 2.23117 6.2251 2.3288 5.32729C2.42526 4.44031 2.61025 3.87592 2.92561 3.42597L1.50566 2.66518C1.00301 3.38236 0.778983 4.19591 0.670935 5.18947C0.564065 6.1722 0.564942 7.40432 0.564942 8.97898H2.23029ZM3.61323 0.822494C2.75425 1.28272 2.03205 1.91416 1.50566 2.66518L2.92561 3.42597C3.31468 2.87086 3.84848 2.40415 4.48337 2.06398L3.61323 0.822494ZM11.4081 18.2878C11.1828 17.9548 10.9849 17.661 10.7925 17.4302C10.5898 17.1871 10.3574 16.9682 10.0351 16.8043L9.1978 18.063C9.25043 18.0897 9.32215 18.1385 9.44664 18.2878C9.58138 18.4495 9.73363 18.6729 9.97504 19.0295L11.4081 18.2878ZM7.81105 17.9495C8.29854 17.9569 8.60732 17.9623 8.8427 17.985C9.06265 18.0064 9.14791 18.0375 9.1978 18.063L10.0351 16.8043C9.71004 16.639 9.37182 16.5713 9.02599 16.5378C8.69561 16.5059 8.29632 16.5006 7.83974 16.4937L7.81105 17.9495ZM15.0248 19.0295C15.2662 18.6729 15.4184 18.4495 15.5532 18.2878C15.6777 18.1385 15.7494 18.0897 15.802 18.063L14.9648 16.8043C14.6425 16.9682 14.41 17.1871 14.2074 17.4302C14.015 17.661 13.8171 17.9548 13.5916 18.2878L15.0248 19.0295ZM17.1601 16.4937C16.7035 16.5006 16.3043 16.5059 15.9739 16.5378C15.628 16.5713 15.2898 16.639 14.9648 16.8043L15.802 18.063C15.852 18.0375 15.9372 18.0064 16.1572 17.985C16.3925 17.9623 16.7013 17.9569 17.1888 17.9495L17.1601 16.4937Z" fill="black" fill-opacity="0.5"/>
<path d="M7.18652 9.9209H7.19739M12.0062 9.9209H12.017M16.8367 9.9209H16.8475" stroke="black" stroke-opacity="0.5" stroke-width="4" stroke-linecap="round" stroke-linejoin="round"/>
</svg>
