<svg width="23" height="20" viewBox="0 0 23 20" fill="none" xmlns="http://www.w3.org/2000/svg">
<path d="M13.9288 4.16675C13.9288 2.78604 12.7205 1.66675 11.23 1.66675C9.73953 1.66675 8.53125 2.78604 8.53125 4.16675V9.16675C8.53125 10.5475 9.73953 11.6667 11.23 11.6667C12.7205 11.6667 13.9288 10.5475 13.9288 9.16675V4.16675Z" stroke="#A1A5C1" stroke-width="1.3"/>
<path d="M4.93262 8.3335V9.16683C4.93262 10.7139 5.59607 12.1977 6.77701 13.2916C7.95795 14.3856 9.55966 15.0002 11.2298 15.0002C12.8999 15.0002 14.5016 14.3856 15.6825 13.2916C16.8635 12.1977 17.5269 10.7139 17.5269 9.16683V8.3335" stroke="#A1A5C1" stroke-width="1.3" stroke-linecap="round" stroke-linejoin="round"/>
<path d="M11.23 18.3333H13.9288M11.23 15V18.3333V15ZM11.23 18.3333H8.53125H11.23Z" stroke="#A1A5C1" stroke-width="1.3" stroke-linecap="round" stroke-linejoin="round"/>
</svg>
