<svg width="25" height="22" viewBox="0 0 25 22" fill="none" xmlns="http://www.w3.org/2000/svg">
<path d="M10.1334 16V13.5004M10.1334 13.5004V11M10.1334 13.5004L12.5001 13.5006M10.1334 13.5004L7.76676 13.5M23.1501 11V10C23.1501 8.59987 23.1501 7.8998 22.8921 7.36503C22.6653 6.89461 22.3032 6.51216 21.8579 6.27249C21.3517 6 20.6889 6 19.3634 6H1.8501M23.1501 11V16M23.1501 11H20.7834C19.4763 11 18.4168 12.1192 18.4168 13.5C18.4168 14.8807 19.4763 16 20.7834 16H23.1501M1.8501 6V17C1.8501 18.4001 1.8501 19.1003 2.10805 19.635C2.33494 20.1054 2.697 20.4879 3.14232 20.7275C3.64857 21 4.31131 21 5.63676 21H19.3634C20.6889 21 21.3517 21 21.8579 20.7275C22.3032 20.4879 22.6653 20.1054 22.8921 19.635C23.1501 19.1003 23.1501 18.4001 23.1501 17V16M1.8501 6V5C1.8501 3.59987 1.8501 2.8998 2.10805 2.36503C2.33494 1.89461 2.697 1.51216 3.14232 1.27249C3.64857 1 4.3113 1 5.63676 1H15.8134C17.1389 1 17.8017 1 18.3079 1.27249C18.7532 1.51216 19.1153 1.89461 19.3421 2.36503C19.6001 2.8998 19.6001 3.59987 19.6001 5V6" stroke="black" stroke-opacity="0.5" stroke-width="1.8" stroke-linecap="round" stroke-linejoin="round"/>
</svg>
