<svg width="150" height="146" viewBox="0 0 150 146" fill="none" xmlns="http://www.w3.org/2000/svg">
<rect x="2.5" y="2.5" width="144.679" height="140.632" rx="47.5" stroke="#F7C567" stroke-width="5"/>
<g filter="url(#filter0_d_7_87)">
<path d="M81.0775 29L71.9269 38.1506L81.0775 47.3012L90.228 38.1506L81.0775 29Z" fill="#F7C567"/>
<path d="M120.132 51.3598L94.285 77.2058L94.268 77.2208H68.422L68.133 76.9348L55.421 64.2368L42.209 77.4478L29 64.2368L42.209 51.0258L55.164 38.0728L81.088 63.9948L106.923 38.1478L120.132 51.3598Z" fill="#F7C567"/>
<path d="M42.626 103.508L42.051 102.183C41.517 100.916 41.251 99.8068 41.251 98.8568C41.251 98.2068 41.476 97.4518 41.926 96.5938C42.376 95.7358 43.131 95.0898 44.19 94.6558C45.248 94.2228 45.928 93.9388 46.228 93.8058L49.354 92.5298L54.731 107.611H50.379L47.128 98.0828C46.444 98.0828 45.961 98.3918 45.678 99.0078C45.611 99.1418 45.578 99.3078 45.578 99.5078C45.578 99.8418 45.686 100.267 45.903 100.784L48.704 107.611H34.874C33.107 107.561 31.689 106.969 30.623 105.835C29.889 105.101 29.476 104.393 29.385 103.709C29.293 103.026 29.247 100.975 29.247 97.5568L33.349 96.2568V101.984C33.532 102.918 34.074 103.426 34.975 103.51H42.626V103.508Z" fill="#F7C567"/>
<path d="M36.474 115.485L33.423 112.459L36.474 109.383L39.5 112.459L36.474 115.485Z" fill="#F7C567"/>
<path d="M41.851 115.485L38.8 112.459L41.851 109.383L44.877 112.459L41.851 115.485Z" fill="#F7C567"/>
<path d="M66.11 103.508L64.009 107.585L62.384 107.61C61.283 107.61 60.27 107.347 59.345 106.822C58.42 106.297 57.669 105.555 57.094 104.596C56.519 103.637 56.231 102.483 56.231 101.132C56.231 99.8478 56.519 98.7308 57.094 97.7808C57.669 96.8308 58.42 96.0888 59.345 95.5548C60.27 95.0208 61.283 94.7548 62.384 94.7548H70.187V108.71C70.187 110.177 69.678 111.402 68.662 112.387C67.695 113.37 66.536 113.887 65.186 113.937H58.984L57.208 109.861H65.011C65.228 109.861 65.386 109.836 65.486 109.786C65.586 109.736 65.686 109.652 65.786 109.536C66.019 109.302 66.136 109.027 66.136 108.711L66.11 103.508ZM66.11 103.508V98.8558H62.384C61.767 98.8558 61.267 99.0648 60.883 99.4808C60.499 99.8978 60.308 100.448 60.308 101.132C60.308 101.866 60.499 102.445 60.883 102.87C61.266 103.295 61.767 103.508 62.384 103.508H66.11Z" fill="#F7C567"/>
<path d="M120.679 91.1288L117.653 88.0528L114.602 91.1288L117.653 94.2048L120.679 91.1288Z" fill="#F7C567"/>
<path d="M116.052 102.408C116.052 102.725 115.943 102.992 115.727 103.208C115.51 103.408 115.243 103.508 114.927 103.508H111.876H111.176H101.273H100.447H90.669H89.844H79.839H79.239H77.389C77.072 103.508 76.805 103.392 76.589 103.158C76.389 102.958 76.289 102.708 76.289 102.408L76.239 86.5768L72.188 88.1018V102.407C72.188 103.858 72.696 105.087 73.713 106.096C74.73 107.105 75.955 107.609 77.39 107.609H79.24H79.84H89.843H90.668H100.446H101.272H111.175H111.875H114.926C116.36 107.609 117.577 107.101 118.577 106.083C119.594 105.083 120.102 103.857 120.102 102.407V94.6288L116.051 96.1548L116.052 102.408Z" fill="#F7C567"/>
<path d="M78.63 114.967H78.705C78.806 114.967 78.887 114.954 78.948 114.929C79.011 114.904 79.061 114.862 79.104 114.803C79.146 114.744 79.178 114.67 79.2 114.58C79.223 114.49 79.249 114.378 79.276 114.244L80.176 109.595H81.756L80.899 113.9C80.815 114.269 80.732 114.614 80.651 114.933C80.569 115.253 80.458 115.534 80.315 115.774C80.171 116.015 79.985 116.203 79.755 116.337C79.547 116.466 79.281 116.536 78.956 116.547H77.367L77.232 115.85L76.249 111.175H76.174C76.072 111.175 75.991 111.188 75.93 111.213C75.869 111.238 75.817 111.28 75.774 111.339C75.733 111.399 75.7 111.473 75.678 111.562C75.656 111.652 75.631 111.764 75.603 111.899L74.703 116.547H73.122L73.98 112.243C74.064 111.873 74.147 111.528 74.228 111.209C74.309 110.89 74.421 110.609 74.564 110.368C74.707 110.127 74.893 109.936 75.123 109.797C75.331 109.673 75.597 109.607 75.922 109.595H77.51L77.645 110.292L78.63 114.967Z" fill="#F7C567"/>
<path d="M87.364 113.749L86.825 116.632H85.278L86.354 111.278C86.422 110.947 86.502 110.675 86.598 110.463C86.694 110.251 86.81 110.079 86.948 109.95C87.085 109.821 87.252 109.731 87.448 109.68C87.643 109.629 87.874 109.605 88.137 109.605H90.062L91.516 116.632H89.961L89.574 114.623H87.741L87.364 113.749ZM88.894 110.806H88.667C88.487 110.806 88.342 110.813 88.229 110.827C88.118 110.842 88.028 110.873 87.96 110.924C87.892 110.975 87.844 111.047 87.813 111.143C87.782 111.239 87.752 111.37 87.725 111.539L87.43 113.413H89.33L88.894 110.806Z" fill="#F7C567"/>
<path d="M100.739 109.654L101.604 114.883H101.697C101.776 114.883 101.823 114.849 101.841 114.781L102.808 109.653H104.464L103.329 115.277C103.266 115.569 103.202 115.801 103.136 115.975C103.068 116.149 102.984 116.286 102.883 116.387C102.782 116.488 102.661 116.553 102.522 116.584C102.382 116.614 102.213 116.63 102.017 116.63H100.638L99.764 112.116H99.671L99.1 115.276C99.038 115.568 98.972 115.8 98.903 115.974C98.833 116.148 98.748 116.285 98.646 116.386C98.545 116.487 98.425 116.552 98.285 116.583C98.144 116.613 97.976 116.629 97.781 116.629H96.468L95.039 109.651H96.704L97.687 114.88H97.788C97.866 114.88 97.915 114.846 97.931 114.778L98.73 109.65H100.739V109.654Z" fill="#F7C567"/>
<path d="M111.55 116.556H110.062V114.051L108.019 109.604H109.693L110.786 112.538L111.912 109.604H113.586L111.551 114.026V116.556H111.55Z" fill="#F7C567"/>
<path d="M78.63 114.967H78.705C78.806 114.967 78.887 114.954 78.948 114.929C79.011 114.904 79.061 114.862 79.104 114.803C79.146 114.744 79.178 114.67 79.2 114.58C79.223 114.49 79.249 114.378 79.276 114.244L80.176 109.595H81.756L80.899 113.9C80.815 114.269 80.732 114.614 80.651 114.933C80.569 115.253 80.458 115.534 80.315 115.774C80.171 116.015 79.985 116.203 79.755 116.337C79.547 116.466 79.281 116.536 78.956 116.547H77.367L77.232 115.85L76.249 111.175H76.174C76.072 111.175 75.991 111.188 75.93 111.213C75.869 111.238 75.817 111.28 75.774 111.339C75.733 111.399 75.7 111.473 75.678 111.562C75.656 111.652 75.631 111.764 75.603 111.899L74.703 116.547H73.122L73.98 112.243C74.064 111.873 74.147 111.528 74.228 111.209C74.309 110.89 74.421 110.609 74.564 110.368C74.707 110.127 74.893 109.936 75.123 109.797C75.331 109.673 75.597 109.607 75.922 109.595H77.51L77.645 110.292L78.63 114.967Z" fill="#F7C567"/>
<path d="M87.364 113.749L86.825 116.632H85.278L86.354 111.278C86.422 110.947 86.502 110.675 86.598 110.463C86.694 110.251 86.81 110.079 86.948 109.95C87.085 109.821 87.252 109.731 87.448 109.68C87.643 109.629 87.874 109.605 88.137 109.605H90.062L91.516 116.632H89.961L89.574 114.623H87.741L87.364 113.749ZM88.894 110.806H88.667C88.487 110.806 88.342 110.813 88.229 110.827C88.118 110.842 88.028 110.873 87.96 110.924C87.892 110.975 87.844 111.047 87.813 111.143C87.782 111.239 87.752 111.37 87.725 111.539L87.43 113.413H89.33L88.894 110.806Z" fill="#F7C567"/>
<path d="M100.739 109.654L101.604 114.883H101.697C101.776 114.883 101.823 114.849 101.841 114.781L102.808 109.653H104.464L103.329 115.277C103.266 115.569 103.202 115.801 103.136 115.975C103.068 116.149 102.984 116.286 102.883 116.387C102.782 116.488 102.661 116.553 102.522 116.584C102.382 116.614 102.213 116.63 102.017 116.63H100.638L99.764 112.116H99.671L99.1 115.276C99.038 115.568 98.972 115.8 98.903 115.974C98.833 116.148 98.748 116.285 98.646 116.386C98.545 116.487 98.425 116.552 98.285 116.583C98.144 116.613 97.976 116.629 97.781 116.629H96.468L95.039 109.651H96.704L97.687 114.88H97.788C97.866 114.88 97.915 114.846 97.931 114.778L98.73 109.65H100.739V109.654Z" fill="#F7C567"/>
<path d="M111.55 116.556H110.062V114.051L108.019 109.604H109.693L110.786 112.538L111.912 109.604H113.586L111.551 114.026V116.556H111.55Z" fill="#F7C567"/>
<path d="M78.63 114.967H78.705C78.806 114.967 78.887 114.954 78.948 114.929C79.011 114.904 79.061 114.862 79.104 114.803C79.146 114.744 79.178 114.67 79.2 114.58C79.223 114.49 79.249 114.378 79.276 114.244L80.176 109.595H81.756L80.899 113.9C80.815 114.269 80.732 114.614 80.651 114.933C80.569 115.253 80.458 115.534 80.315 115.774C80.171 116.015 79.985 116.203 79.755 116.337C79.547 116.466 79.281 116.536 78.956 116.547H77.367L77.232 115.85L76.249 111.175H76.174C76.072 111.175 75.991 111.188 75.93 111.213C75.869 111.238 75.817 111.28 75.774 111.339C75.733 111.399 75.7 111.473 75.678 111.562C75.656 111.652 75.631 111.764 75.603 111.899L74.703 116.547H73.122L73.98 112.243C74.064 111.873 74.147 111.528 74.228 111.209C74.309 110.89 74.421 110.609 74.564 110.368C74.707 110.127 74.893 109.936 75.123 109.797C75.331 109.673 75.597 109.607 75.922 109.595H77.51L77.645 110.292L78.63 114.967Z" fill="#F7C567"/>
<path d="M87.364 113.749L86.825 116.632H85.278L86.354 111.278C86.422 110.947 86.502 110.675 86.598 110.463C86.694 110.251 86.81 110.079 86.948 109.95C87.085 109.821 87.252 109.731 87.448 109.68C87.643 109.629 87.874 109.605 88.137 109.605H90.062L91.516 116.632H89.961L89.574 114.623H87.741L87.364 113.749ZM88.894 110.806H88.667C88.487 110.806 88.342 110.813 88.229 110.827C88.118 110.842 88.028 110.873 87.96 110.924C87.892 110.975 87.844 111.047 87.813 111.143C87.782 111.239 87.752 111.37 87.725 111.539L87.43 113.413H89.33L88.894 110.806Z" fill="#F7C567"/>
<path d="M100.739 109.654L101.604 114.883H101.697C101.776 114.883 101.823 114.849 101.841 114.781L102.808 109.653H104.464L103.329 115.277C103.266 115.569 103.202 115.801 103.136 115.975C103.068 116.149 102.984 116.286 102.883 116.387C102.782 116.488 102.661 116.553 102.522 116.584C102.382 116.614 102.213 116.63 102.017 116.63H100.638L99.764 112.116H99.671L99.1 115.276C99.038 115.568 98.972 115.8 98.903 115.974C98.833 116.148 98.748 116.285 98.646 116.386C98.545 116.487 98.425 116.552 98.285 116.583C98.144 116.613 97.976 116.629 97.781 116.629H96.468L95.039 109.651H96.704L97.687 114.88H97.788C97.866 114.88 97.915 114.846 97.931 114.778L98.73 109.65H100.739V109.654Z" fill="#F7C567"/>
<path d="M111.55 116.556H110.062V114.051L108.019 109.604H109.693L110.786 112.538L111.912 109.604H113.586L111.551 114.026V116.556H111.55Z" fill="#F7C567"/>
</g>
<defs>
<filter id="filter0_d_7_87" x="25" y="29" width="99.679" height="95.6318" filterUnits="userSpaceOnUse" color-interpolation-filters="sRGB">
<feFlood flood-opacity="0" result="BackgroundImageFix"/>
<feColorMatrix in="SourceAlpha" type="matrix" values="0 0 0 0 0 0 0 0 0 0 0 0 0 0 0 0 0 0 127 0" result="hardAlpha"/>
<feOffset dy="4"/>
<feGaussianBlur stdDeviation="2"/>
<feComposite in2="hardAlpha" operator="out"/>
<feColorMatrix type="matrix" values="0 0 0 0 0 0 0 0 0 0 0 0 0 0 0 0 0 0 0.25 0"/>
<feBlend mode="normal" in2="BackgroundImageFix" result="effect1_dropShadow_7_87"/>
<feBlend mode="normal" in="SourceGraphic" in2="effect1_dropShadow_7_87" result="shape"/>
</filter>
</defs>
</svg>
