<svg width="34" height="34" viewBox="0 0 34 34" fill="none" xmlns="http://www.w3.org/2000/svg">
<rect width="34" height="34" rx="17" transform="matrix(-1 0 0 1 34 0)" fill="white"/>
<path fill-rule="evenodd" clip-rule="evenodd" d="M9.06668 17C9.06668 17.2652 9.17115 17.5195 9.3571 17.707C9.54305 17.8945 9.79526 17.9998 10.0582 17.9998H21.5464L17.2887 22.291C17.1965 22.384 17.1233 22.4944 17.0734 22.6158C17.0236 22.7373 16.9979 22.8675 16.9979 22.9989C16.9979 23.1304 17.0236 23.2606 17.0734 23.382C17.1233 23.5035 17.1965 23.6138 17.2887 23.7068C17.3809 23.7997 17.4903 23.8735 17.6108 23.9238C17.7312 23.9741 17.8603 24 17.9907 24C18.1211 24 18.2502 23.9741 18.3706 23.9238C18.4911 23.8735 18.6005 23.7997 18.6927 23.7068L24.642 17.7079C24.7344 17.615 24.8076 17.5047 24.8576 17.3832C24.9076 17.2617 24.9333 17.1315 24.9333 17C24.9333 16.8685 24.9076 16.7383 24.8576 16.6168C24.8076 16.4953 24.7344 16.385 24.642 16.2921L18.6927 10.2932C18.5065 10.1055 18.254 10 17.9907 10C17.7274 10 17.4749 10.1055 17.2887 10.2932C17.1025 10.4809 16.9979 10.7356 16.9979 11.0011C16.9979 11.2666 17.1025 11.5212 17.2887 11.709L21.5464 16.0002H10.0582C9.79526 16.0002 9.54305 16.1055 9.3571 16.293C9.17115 16.4805 9.06668 16.7348 9.06668 17Z" fill="#000929"/>
</svg>
