<svg width="102" height="100" viewBox="0 0 102 100" fill="none" xmlns="http://www.w3.org/2000/svg">
<mask id="mask0_565_40315" style="mask-type:luminance" maskUnits="userSpaceOnUse" x="1" y="0" width="99" height="100">
<path d="M50.5683 97.6013C56.7873 97.6094 62.9467 96.3883 68.6923 94.0083C74.438 91.6283 79.6566 88.1363 84.0484 83.7329C88.4517 79.3412 91.9437 74.1225 94.3237 68.3769C96.7037 62.6312 97.9248 56.4719 97.9167 50.2528C97.9247 44.0338 96.7035 37.8745 94.3235 32.1288C91.9436 26.3832 88.4516 21.1645 84.0484 16.7727C79.6566 12.3694 74.438 8.87734 68.6923 6.49734C62.9467 4.11734 56.7873 2.89628 50.5683 2.90434C44.3492 2.89641 38.1899 4.11753 32.4443 6.49752C26.6986 8.87752 21.48 12.3695 17.0881 16.7727C12.6849 21.1645 9.19295 26.3832 6.81295 32.1288C4.43296 37.8745 3.21184 44.0338 3.21977 50.2528C3.21171 56.4719 4.43277 62.6312 6.81277 68.3769C9.19277 74.1225 12.6848 79.3412 17.0881 83.7329C21.48 88.1362 26.6986 91.6281 32.4443 94.0081C38.1899 96.3881 44.3492 97.6092 50.5683 97.6013Z" fill="white" stroke="white" stroke-width="4" stroke-linejoin="round"/>
<path d="M31.6289 50.2534L45.8335 64.4579L74.2425 36.0488" stroke="black" stroke-width="4" stroke-linecap="round" stroke-linejoin="round"/>
</mask>
<g mask="url(#mask0_565_40315)">
<path d="M-6.25 -6.56445H107.386V107.072H-6.25V-6.56445Z" fill="#800080"/>
</g>
</svg>
