<svg width="16" height="15" viewBox="0 0 16 15" fill="none" xmlns="http://www.w3.org/2000/svg">
<path d="M14.75 5.5H4.25V3.25C4.25 2.42275 4.92275 1.75 5.75 1.75C6.57725 1.75 7.25 2.42275 7.25 3.25H8.75C8.75 1.5955 7.4045 0.25 5.75 0.25C4.0955 0.25 2.75 1.5955 2.75 3.25V5.5H1.25C1.05109 5.5 0.860322 5.57902 0.71967 5.71967C0.579018 5.86032 0.5 6.05109 0.5 6.25V7.75C0.5 9.7045 1.7555 11.3672 3.5 11.9875V14.5H5V12.25H11V14.5H12.5V11.9875C14.2445 11.3672 15.5 9.7045 15.5 7.75V6.25C15.5 6.05109 15.421 5.86032 15.2803 5.71967C15.1397 5.57902 14.9489 5.5 14.75 5.5ZM14 7.75C14 9.4045 12.6545 10.75 11 10.75H5C3.3455 10.75 2 9.4045 2 7.75V7H14V7.75Z" fill="#800080"/>
</svg>
