<svg width="18" height="19" viewBox="0 0 18 19" fill="none" xmlns="http://www.w3.org/2000/svg">
<path d="M15.75 8.58476V6.49976C15.75 5.26226 14.7375 4.24976 13.5 4.24976H10.5C9.9225 4.24976 9.3975 4.47476 9 4.83476C8.6025 4.47476 8.0775 4.24976 7.5 4.24976H4.5C3.2625 4.24976 2.25 5.26226 2.25 6.49976V8.58476C1.7925 8.99726 1.5 9.58976 1.5 10.2498V14.7498H3V13.2498H15V14.7498H16.5V10.2498C16.5 9.58976 16.2075 8.99726 15.75 8.58476ZM10.5 5.74976H13.5C13.9125 5.74976 14.25 6.08726 14.25 6.49976V7.99976H9.75V6.49976C9.75 6.08726 10.0875 5.74976 10.5 5.74976ZM3.75 6.49976C3.75 6.08726 4.0875 5.74976 4.5 5.74976H7.5C7.9125 5.74976 8.25 6.08726 8.25 6.49976V7.99976H3.75V6.49976ZM3 11.7498V10.2498C3 9.83726 3.3375 9.49976 3.75 9.49976H14.25C14.6625 9.49976 15 9.83726 15 10.2498V11.7498H3Z" fill="#800080"/>
</svg>
