<svg width="31" height="28" viewBox="0 0 31 28" fill="none" xmlns="http://www.w3.org/2000/svg">
<path d="M0.5 12.1163C0.5 12.6365 0.968545 13.0582 1.54651 13.0582C2.12448 13.0582 2.59302 12.6365 2.59302 12.1163C2.59302 10.0427 2.59413 8.55355 2.71683 7.39204C2.83806 6.24453 3.07055 5.51436 3.4669 4.93226C3.95589 4.2141 4.62677 3.61031 5.42472 3.17022C6.0715 2.8135 6.8828 2.60426 8.1578 2.49515C9.44837 2.38472 11.1029 2.38373 13.407 2.38373H17.593C19.897 2.38373 21.5516 2.38472 22.8422 2.49515C24.1173 2.60426 24.9285 2.8135 25.5753 3.17022C26.3733 3.61031 27.0441 4.2141 27.5331 4.93226C27.9295 5.51436 28.162 6.24453 28.2832 7.39204C28.4059 8.55355 28.407 10.0427 28.407 12.1163V13.3721C28.407 14.8478 28.4064 15.9075 28.3431 16.7436C28.2803 17.5713 28.1594 18.1111 27.9556 18.5541C27.3536 19.8619 26.1993 20.9009 24.7461 21.4426C24.0267 21.7109 23.1087 21.8111 21.357 21.8383L21.3097 21.8391C20.7555 21.8477 20.2699 21.8552 19.866 21.8954C19.4314 21.9387 19.0064 22.0262 18.5978 22.2401C18.1927 22.4522 17.9006 22.7354 17.6459 23.0498C17.4114 23.3395 17.1704 23.7058 16.8975 24.1206L16.872 24.1593L16.1156 25.3095C15.8467 25.7184 15.1533 25.7184 14.8842 25.3095L14.1278 24.1593L14.1044 24.1238C13.8308 23.7077 13.5892 23.3402 13.3541 23.0498C13.0993 22.7354 12.8073 22.4522 12.4021 22.2401C11.9936 22.0262 11.5686 21.9387 11.1339 21.8954C10.7302 21.8552 10.2445 21.8477 9.6904 21.8391L9.64302 21.8383C7.89125 21.8111 6.97334 21.7109 6.25385 21.4426C4.80077 20.9009 3.64632 19.8619 3.04443 18.5541C2.82326 18.0735 2.21107 17.8453 1.6771 18.0444C1.14313 18.2434 0.889554 18.7944 1.11073 19.275C1.92504 21.0443 3.48697 22.45 5.45289 23.1829C6.5761 23.6016 7.85541 23.6946 9.60697 23.7217C10.2197 23.7312 10.6077 23.7383 10.9036 23.7677C11.18 23.7953 11.2871 23.8356 11.3498 23.8685C11.416 23.903 11.5061 23.9662 11.6626 24.1593C11.8319 24.3686 12.0233 24.6575 12.3267 25.1189L13.0831 26.269C14.1626 27.9103 16.8374 27.9103 17.9169 26.269L18.6733 25.1189C18.9767 24.6575 19.168 24.3686 19.3374 24.1593C19.4938 23.9662 19.5839 23.903 19.65 23.8685C19.7128 23.8356 19.82 23.7953 20.0964 23.7677C20.3922 23.7383 20.7803 23.7312 21.393 23.7217C23.1446 23.6946 24.424 23.6016 25.5471 23.1829C27.513 22.45 29.0749 21.0443 29.8893 19.275C30.2165 18.5642 30.3612 17.7955 30.4312 16.8718C30.5 15.964 30.5 14.8402 30.5 13.4067V13.3721V12.1163V12.0664C30.5 10.0531 30.5 8.47471 30.3667 7.21374C30.231 5.92834 29.9494 4.87583 29.3177 3.94801C28.6562 2.9764 27.7485 2.15949 26.6689 1.56408C25.6379 0.995508 24.4685 0.742109 23.0403 0.619893C21.6391 0.499986 19.8852 0.499992 17.6478 0.5H17.593H13.407H13.3522C11.1148 0.499992 9.3609 0.499986 7.95969 0.619893C6.53148 0.742109 5.36202 0.995508 4.33111 1.56408C3.25154 2.15949 2.34387 2.9764 1.68231 3.94801C1.05056 4.87583 0.76901 5.92834 0.633214 7.21374C0.499984 8.47483 0.499991 10.0534 0.5 12.067V12.1163Z" fill="black"/>
<path d="M0.5 12.1163C0.5 12.6365 0.968545 13.0582 1.54651 13.0582C2.12448 13.0582 2.59302 12.6365 2.59302 12.1163C2.59302 10.0427 2.59413 8.55355 2.71683 7.39204C2.83806 6.24453 3.07055 5.51436 3.4669 4.93226C3.95589 4.2141 4.62677 3.61031 5.42472 3.17022C6.0715 2.8135 6.8828 2.60426 8.1578 2.49515C9.44837 2.38472 11.1029 2.38373 13.407 2.38373H17.593C19.897 2.38373 21.5516 2.38472 22.8422 2.49515C24.1173 2.60426 24.9285 2.8135 25.5753 3.17022C26.3733 3.61031 27.0441 4.2141 27.5331 4.93226C27.9295 5.51436 28.162 6.24453 28.2832 7.39204C28.4059 8.55355 28.407 10.0427 28.407 12.1163V13.3721C28.407 14.8478 28.4064 15.9075 28.3431 16.7436C28.2803 17.5713 28.1594 18.1111 27.9556 18.5541C27.3536 19.8619 26.1993 20.9009 24.7461 21.4426C24.0267 21.7109 23.1087 21.8111 21.357 21.8383L21.3097 21.8391C20.7555 21.8477 20.2699 21.8552 19.866 21.8954C19.4314 21.9387 19.0064 22.0262 18.5978 22.2401C18.1927 22.4522 17.9006 22.7354 17.6459 23.0498C17.4114 23.3395 17.1704 23.7058 16.8975 24.1206L16.872 24.1593L16.1156 25.3095C15.8467 25.7184 15.1533 25.7184 14.8842 25.3095L14.1278 24.1593L14.1044 24.1238C13.8308 23.7077 13.5892 23.3402 13.3541 23.0498C13.0993 22.7354 12.8073 22.4522 12.4021 22.2401C11.9936 22.0262 11.5686 21.9387 11.1339 21.8954C10.7302 21.8552 10.2445 21.8477 9.6904 21.8391L9.64302 21.8383C7.89125 21.8111 6.97334 21.7109 6.25385 21.4426C4.80077 20.9009 3.64632 19.8619 3.04443 18.5541C2.82326 18.0735 2.21107 17.8453 1.6771 18.0444C1.14313 18.2434 0.889554 18.7944 1.11073 19.275C1.92504 21.0443 3.48697 22.45 5.45289 23.1829C6.5761 23.6016 7.85541 23.6946 9.60697 23.7217C10.2197 23.7312 10.6077 23.7383 10.9036 23.7677C11.18 23.7953 11.2871 23.8356 11.3498 23.8685C11.416 23.903 11.5061 23.9662 11.6626 24.1593C11.8319 24.3686 12.0233 24.6575 12.3267 25.1189L13.0831 26.269C14.1626 27.9103 16.8374 27.9103 17.9169 26.269L18.6733 25.1189C18.9767 24.6575 19.168 24.3686 19.3374 24.1593C19.4938 23.9662 19.5839 23.903 19.65 23.8685C19.7128 23.8356 19.82 23.7953 20.0964 23.7677C20.3922 23.7383 20.7803 23.7312 21.393 23.7217C23.1446 23.6946 24.424 23.6016 25.5471 23.1829C27.513 22.45 29.0749 21.0443 29.8893 19.275C30.2165 18.5642 30.3612 17.7955 30.4312 16.8718C30.5 15.964 30.5 14.8402 30.5 13.4067V13.3721V12.1163V12.0664C30.5 10.0531 30.5 8.47471 30.3667 7.21374C30.231 5.92834 29.9494 4.87583 29.3177 3.94801C28.6562 2.9764 27.7485 2.15949 26.6689 1.56408C25.6379 0.995508 24.4685 0.742109 23.0403 0.619893C21.6391 0.499986 19.8852 0.499992 17.6478 0.5H17.593H13.407H13.3522C11.1148 0.499992 9.3609 0.499986 7.95969 0.619893C6.53148 0.742109 5.36202 0.995508 4.33111 1.56408C3.25154 2.15949 2.34387 2.9764 1.68231 3.94801C1.05056 4.87583 0.76901 5.92834 0.633214 7.21374C0.499984 8.47483 0.499991 10.0534 0.5 12.067V12.1163Z" stroke="black"/>
<path d="M8.5 13.5H8.51462M14.9854 13.5H15M21.4854 13.5H21.5" stroke="black" stroke-width="3" stroke-linecap="round" stroke-linejoin="round"/>
</svg>
