<svg width="17" height="17" viewBox="0 0 17 17" fill="none" xmlns="http://www.w3.org/2000/svg">
<path d="M8.5 0C10.1811 0 11.8245 0.498516 13.2223 1.43251C14.6202 2.3665 15.7096 3.69402 16.353 5.24719C16.9963 6.80036 17.1646 8.50943 16.8367 10.1583C16.5087 11.8071 15.6992 13.3217 14.5104 14.5104C13.3217 15.6992 11.8071 16.5087 10.1583 16.8367C8.50943 17.1646 6.80036 16.9963 5.24719 16.353C3.69402 15.7096 2.3665 14.6202 1.43251 13.2223C0.498516 11.8245 0 10.1811 0 8.5C0.00238037 6.24639 0.898676 4.08576 2.49222 2.49222C4.08576 0.898677 6.24639 0.00237985 8.5 0ZM8.5 15.6923C9.9225 15.6923 11.3131 15.2705 12.4958 14.4802C13.6786 13.6899 14.6005 12.5666 15.1448 11.2524C15.6892 9.93815 15.8316 8.49202 15.5541 7.09685C15.2766 5.70168 14.5916 4.42013 13.5857 3.41427C12.5799 2.40841 11.2983 1.72341 9.90315 1.44589C8.50798 1.16837 7.06184 1.31081 5.74762 1.85517C4.4334 2.39954 3.31011 3.3214 2.51981 4.50417C1.72951 5.68694 1.30769 7.07749 1.30769 8.5C1.30985 10.4069 2.06831 12.235 3.41666 13.5833C4.76501 14.9317 6.59314 15.6901 8.5 15.6923ZM12.4231 6.86538C12.4231 6.67141 12.3656 6.48178 12.2578 6.3205C12.15 6.15921 11.9968 6.0335 11.8176 5.95927C11.6384 5.88504 11.4412 5.86562 11.251 5.90346C11.0607 5.9413 10.886 6.03471 10.7488 6.17187C10.6116 6.30904 10.5182 6.48379 10.4804 6.67404C10.4425 6.8643 10.462 7.0615 10.5362 7.24071C10.6104 7.41992 10.7361 7.57309 10.8974 7.68086C11.0587 7.78863 11.2483 7.84615 11.4423 7.84615C11.7024 7.84615 11.9519 7.74282 12.1358 7.55889C12.3197 7.37496 12.4231 7.1255 12.4231 6.86538ZM4.57692 6.86538C4.57692 7.05936 4.63444 7.24898 4.74221 7.41027C4.84998 7.57156 5.00316 7.69726 5.18237 7.7715C5.36158 7.84573 5.55878 7.86515 5.74903 7.82731C5.93928 7.78946 6.11404 7.69605 6.2512 7.55889C6.38836 7.42173 6.48177 7.24697 6.51962 7.05672C6.55746 6.86647 6.53803 6.66927 6.4638 6.49006C6.38957 6.31085 6.26386 6.15767 6.10258 6.0499C5.94129 5.94213 5.75167 5.88461 5.55769 5.88461C5.29757 5.88461 5.04811 5.98794 4.86418 6.17187C4.68025 6.3558 4.57692 6.60527 4.57692 6.86538ZM4.66437 10.7885C5.50538 12.2424 6.9038 13.0769 8.5 13.0769C10.0962 13.0769 11.4938 12.2433 12.3348 10.7885C12.3821 10.714 12.4139 10.6308 12.4282 10.5438C12.4425 10.4568 12.4391 10.3678 12.4181 10.2821C12.3971 10.1965 12.359 10.116 12.3061 10.0454C12.2532 9.97486 12.1866 9.91574 12.1102 9.87161C12.0339 9.82748 11.9494 9.79925 11.8619 9.78861C11.7743 9.77798 11.6855 9.78516 11.6008 9.80973C11.5161 9.8343 11.4373 9.87575 11.369 9.93158C11.3008 9.98741 11.2445 10.0565 11.2037 10.1346C10.5931 11.1898 9.6336 11.7692 8.5 11.7692C7.36639 11.7692 6.40687 11.1889 5.79716 10.1346C5.71046 9.9844 5.56763 9.87477 5.4001 9.82987C5.23257 9.78496 5.05406 9.80844 4.90384 9.89514C4.75363 9.98185 4.64401 10.1247 4.5991 10.2922C4.55419 10.4597 4.57767 10.6382 4.66437 10.7885Z" fill="black" fill-opacity="0.7"/>
</svg>
