<svg width="19" height="21" viewBox="0 0 19 21" fill="none" xmlns="http://www.w3.org/2000/svg">
<path d="M1.2591 2.72917L7.04035 9.33333V19.75L11.207 17.6667V9.33333L16.9883 2.72917C17.1204 2.57877 17.2064 2.3935 17.2359 2.19551C17.2655 1.99752 17.2374 1.79521 17.155 1.61278C17.0726 1.43035 16.9393 1.27553 16.7712 1.16686C16.6031 1.05818 16.4072 1.00025 16.207 1H2.04035C1.84017 1.00025 1.64429 1.05818 1.47618 1.16686C1.30806 1.27553 1.17481 1.43035 1.09239 1.61278C1.00997 1.79521 0.981859 1.99752 1.01142 2.19551C1.04099 2.3935 1.12698 2.57877 1.2591 2.72917Z" stroke="#A1A5C1" stroke-width="2" stroke-linecap="round" stroke-linejoin="round"/>
</svg>
