<svg width="19" height="20" viewBox="0 0 19 20" fill="none" xmlns="http://www.w3.org/2000/svg">
<path fill-rule="evenodd" clip-rule="evenodd" d="M13.977 19.4606C12.6067 19.409 8.72315 18.8593 4.65598 14.6948C0.589752 10.5292 0.0539962 6.55279 0.00260931 5.14837C-0.0735194 3.00811 1.52709 0.929245 3.37606 0.117387C3.59872 0.0189183 3.84254 -0.0185717 4.08361 0.00859575C4.32468 0.0357632 4.55471 0.126655 4.75114 0.272351C6.27371 1.40876 7.32429 3.12798 8.22641 4.47978C8.4249 4.77678 8.50977 5.13818 8.46484 5.49514C8.41992 5.85209 8.24834 6.17964 7.9828 6.41537L6.12621 7.8276C6.03651 7.89393 5.97338 7.99136 5.94852 8.10178C5.92367 8.2122 5.93879 8.3281 5.99108 8.42796C6.41169 9.21058 7.15966 10.3762 8.01611 11.2534C8.8735 12.1305 10.0649 12.9473 10.8824 13.4268C10.9848 13.4857 11.1055 13.5022 11.2195 13.4728C11.3334 13.4434 11.4321 13.3705 11.4952 13.2689L12.7037 11.385C12.9259 11.0827 13.2537 10.8802 13.6184 10.8199C13.9831 10.7595 14.3564 10.8461 14.6602 11.0614C15.9992 12.0107 17.5617 13.0681 18.7055 14.5681C18.8593 14.7707 18.9572 15.0119 18.9888 15.2665C19.0204 15.5211 18.9847 15.7797 18.8854 16.0154C18.0889 17.9188 16.0734 19.5396 13.977 19.4606Z" fill="white"/>
</svg>
