<svg width="8" height="11" viewBox="0 0 8 11" fill="none" xmlns="http://www.w3.org/2000/svg">
<path d="M4 0.333252C2.93952 0.334481 1.92283 0.748777 1.17296 1.48526C0.423084 2.22175 0.00125533 3.22028 4.25559e-06 4.26182C-0.00126589 5.11298 0.281815 5.94103 0.805822 6.61897C0.805822 6.61897 0.914912 6.76004 0.932731 6.7804L4 10.3333L7.06872 6.77861C7.08472 6.75968 7.19418 6.61897 7.19418 6.61897L7.19454 6.6179C7.71829 5.94026 8.00124 5.11258 8 4.26182C7.99874 3.22028 7.57692 2.22175 6.82704 1.48526C6.07717 0.748777 5.06048 0.334481 4 0.333252ZM4 5.69039C3.71232 5.69039 3.4311 5.60661 3.1919 5.44964C2.9527 5.29266 2.76627 5.06955 2.65618 4.80851C2.54609 4.54748 2.51728 4.26024 2.5734 3.98312C2.62953 3.70601 2.76806 3.45146 2.97148 3.25167C3.1749 3.05188 3.43408 2.91582 3.71623 2.8607C3.99839 2.80558 4.29085 2.83387 4.55663 2.942C4.82241 3.05012 5.04958 3.23322 5.20941 3.46815C5.36924 3.70308 5.45454 3.97928 5.45454 4.26182C5.45406 4.64056 5.30066 5.00365 5.02799 5.27145C4.75531 5.53926 4.38562 5.68992 4 5.69039Z" fill="#415770"/>
</svg>
