<svg width="231" height="166" viewBox="0 0 231 166" fill="none" xmlns="http://www.w3.org/2000/svg">
<path d="M56.6379 89.716H18.7993V161.247H56.6379V89.716Z" fill="#E8E2E2"/>
<path d="M45.4089 89.716H7.57031V161.247H45.4089V89.716Z" fill="#F5F5F5"/>
<path d="M42.6233 104.441H10.144V93.1001H42.6233V104.441ZM10.5431 104.042H42.2243V93.4992H10.5431V104.042Z" fill="#E8E2E2"/>
<path d="M20.4395 93.2997H32.7664V93.5831C32.7664 94.107 32.5583 94.6094 32.1879 94.9798C31.8174 95.3503 31.315 95.5584 30.7911 95.5584H22.4109C21.887 95.5584 21.3846 95.3503 21.0141 94.9798C20.6437 94.6094 20.4355 94.107 20.4355 93.5831V93.2997H20.4395Z" fill="#E8E2E2"/>
<path d="M42.6233 118.843H10.144V107.506H42.6233V118.843ZM10.5431 118.444H42.2243V107.905H10.5431V118.444Z" fill="#E8E2E2"/>
<path d="M20.4395 107.706H32.7664V107.989C32.7664 108.513 32.5583 109.015 32.1879 109.386C31.8174 109.756 31.315 109.964 30.7911 109.964H22.4109C21.887 109.964 21.3846 109.756 21.0141 109.386C20.6437 109.015 20.4355 108.513 20.4355 107.989V107.706H20.4395Z" fill="#E8E2E2"/>
<path d="M42.6233 133.245H10.144V121.908H42.6233V133.245ZM10.5431 132.846H42.2243V122.307H10.5431V132.846Z" fill="#E8E2E2"/>
<path d="M20.4395 122.108H32.7663V122.379C32.7663 122.903 32.5582 123.405 32.1878 123.776C31.8173 124.146 31.3149 124.354 30.791 124.354H22.4108C21.8876 124.353 21.3862 124.145 21.0166 123.774C20.647 123.404 20.4395 122.902 20.4395 122.379V122.096V122.108Z" fill="#E8E2E2"/>
<path d="M42.6233 147.647H10.144V136.31H42.6233V147.647ZM10.5431 147.248H42.2243V136.709H10.5431V147.248Z" fill="#E8E2E2"/>
<path d="M20.4395 136.509H32.7664V136.793C32.7664 137.317 32.5583 137.819 32.1879 138.19C31.8174 138.56 31.315 138.768 30.7911 138.768H22.4109C21.887 138.768 21.3846 138.56 21.0141 138.19C20.6437 137.819 20.4355 137.317 20.4355 136.793V136.509H20.4395Z" fill="#E8E2E2"/>
<path d="M46.993 87.0384H5.89014V90.6019H46.993V87.0384Z" fill="#E8E2E2"/>
<path d="M59.3481 87.0384H46.9893V90.6019H59.3481V87.0384Z" fill="#E8E2E2"/>
<path d="M9.55762 161.247H7.57031V164.902H9.55762V161.247Z" fill="#E8E2E2"/>
<path d="M21.8403 161.247H19.853V164.902H21.8403V161.247Z" fill="#E8E2E2"/>
<path d="M44.2832 161.247H42.2959V164.902H44.2832V161.247Z" fill="#E8E2E2"/>
<path d="M55.5049 161.247H53.5176V164.902H55.5049V161.247Z" fill="#E8E2E2"/>
<path d="M213.013 77.1259C211.114 77.1698 209.968 79.3326 209.868 81.2282C209.769 83.1237 210.268 85.0631 209.825 86.9028C209.234 89.2412 207.163 90.9971 206.632 93.3435C205.994 96.117 207.634 98.8785 207.829 101.724C207.933 103.104 207.698 104.517 208.017 105.862C208.291 107.009 208.954 108.025 209.894 108.736C210.833 109.448 211.991 109.812 213.169 109.765C214.347 109.717 215.472 109.263 216.352 108.478C217.232 107.694 217.812 106.628 217.993 105.463C218.332 103.316 217.283 101.105 217.746 98.9782C218.085 97.4059 219.222 96.0332 219.242 94.425C219.266 92.5135 217.71 90.9372 217.343 89.0577C216.976 87.1781 217.842 85.2866 217.893 83.3751C217.981 79.9432 216.433 77.3294 213.009 77.1298" fill="#E8E2E2"/>
<path d="M213.951 86.0848C213.96 86.1856 213.96 86.2872 213.951 86.3881C213.951 86.6036 213.919 86.8949 213.895 87.258C213.839 88.0322 213.759 89.1216 213.659 90.4505C213.456 93.1521 213.181 96.8833 212.901 101.01C212.622 105.136 212.39 108.871 212.231 111.573C212.147 112.913 212.079 114.003 212.031 114.765C212.007 115.128 211.987 115.419 211.971 115.635C211.97 115.737 211.958 115.839 211.936 115.938C211.93 115.836 211.93 115.733 211.936 115.631C211.936 115.419 211.936 115.128 211.964 114.761C211.995 113.987 212.043 112.897 212.103 111.569C212.235 108.859 212.442 105.124 212.722 100.998C213.001 96.8713 213.296 93.1401 213.52 90.4425C213.644 89.1056 213.743 88.0162 213.815 87.25C213.851 86.8829 213.883 86.5956 213.903 86.3801C213.913 86.2808 213.929 86.1823 213.951 86.0848Z" fill="#E8E2E2"/>
<path d="M212.618 123.013C213.413 123.013 214.2 122.857 214.935 122.553C215.669 122.248 216.337 121.802 216.899 121.24C217.461 120.678 217.907 120.011 218.211 119.276C218.515 118.542 218.672 117.755 218.672 116.96V110.906H206.564V116.96C206.564 118.565 207.202 120.105 208.338 121.24C209.473 122.376 211.013 123.013 212.618 123.013Z" fill="#E8E2E2"/>
<path d="M206.564 113.883C206.634 113.92 206.699 113.964 206.76 114.014L207.29 114.414L209.166 115.93H209.062L212.554 113.791L212.61 113.759L212.666 113.795L215.914 115.934H215.81L217.865 114.418L218.444 114.018C218.512 113.966 218.585 113.922 218.664 113.887C218.61 113.953 218.548 114.012 218.48 114.062L217.925 114.513L215.93 116.086L215.882 116.126L215.83 116.09L212.562 113.975H212.666L209.158 116.082L209.102 116.114L209.058 116.074C208.32 115.443 207.702 114.908 207.231 114.501L206.732 114.054C206.616 113.951 206.556 113.891 206.564 113.883Z" fill="#F5F5F5"/>
<path d="M206.564 112.674C206.635 112.709 206.701 112.753 206.76 112.805L207.29 113.204L209.166 114.725H209.062L212.554 112.586L212.61 112.55L212.666 112.586L215.914 114.729H215.81L217.865 113.212L218.444 112.813C218.51 112.759 218.584 112.714 218.664 112.682C218.61 112.748 218.548 112.807 218.48 112.857L217.925 113.308L215.93 114.881L215.882 114.92L215.83 114.885L212.562 112.77H212.666L209.158 114.881L209.102 114.912L209.058 114.873L207.231 113.3L206.732 112.849C206.616 112.742 206.556 112.682 206.564 112.674Z" fill="#F5F5F5"/>
<path d="M206.564 115.116C206.635 115.151 206.701 115.196 206.76 115.248L207.29 115.647L209.166 117.167H209.062L212.554 115.028L212.61 114.992L212.666 115.028L215.914 117.171H215.81L217.865 115.655L218.444 115.256C218.51 115.201 218.584 115.157 218.664 115.124C218.61 115.189 218.549 115.247 218.48 115.296L217.925 115.747L215.93 117.323L215.882 117.359L215.83 117.327L212.562 115.212H212.666L209.158 117.323L209.102 117.355L209.058 117.315L207.231 115.743L206.732 115.292C206.616 115.196 206.556 115.124 206.564 115.116Z" fill="#F5F5F5"/>
<path d="M221.217 153.593L225.08 164.675H223.149L216.385 153.593H221.217Z" fill="#E8E2E2"/>
<path d="M199.042 153.593L195.179 164.675H197.11L203.874 153.593H199.042Z" fill="#E8E2E2"/>
<path d="M189.847 153.868H220.73V122.985H189.847V153.868Z" fill="#E8E2E2"/>
<path d="M199.525 153.868H230.408V122.985H199.525V153.868Z" fill="#F5F5F5"/>
<path d="M228.369 151.965H201.564V125.172H228.369V151.965ZM201.964 151.566H227.97V125.571H201.964V151.566Z" fill="#E8E2E2"/>
<path d="M228.013 133.485C219.297 133.229 210.482 133.297 201.763 133.485C201.738 133.49 201.716 133.503 201.7 133.522C201.684 133.541 201.676 133.566 201.676 133.591C201.676 133.616 201.684 133.64 201.7 133.659C201.716 133.678 201.738 133.692 201.763 133.696C210.482 133.872 219.297 133.94 228.013 133.696C228.034 133.692 228.054 133.68 228.068 133.663C228.082 133.646 228.089 133.625 228.089 133.603C228.089 133.581 228.082 133.559 228.068 133.542C228.054 133.525 228.034 133.513 228.013 133.509V133.485Z" fill="#E8E2E2"/>
<path d="M214.214 129.694C214.213 129.843 214.257 129.989 214.339 130.114C214.421 130.238 214.539 130.336 214.677 130.393C214.814 130.451 214.966 130.466 215.113 130.438C215.259 130.409 215.394 130.338 215.5 130.232C215.606 130.127 215.678 129.993 215.708 129.846C215.737 129.7 215.722 129.548 215.665 129.41C215.608 129.272 215.512 129.154 215.388 129.071C215.263 128.988 215.117 128.943 214.968 128.943C214.769 128.943 214.578 129.022 214.436 129.163C214.295 129.303 214.215 129.494 214.214 129.694Z" fill="#E8E2E2"/>
<path d="M225.044 141.757C225.045 141.905 225.089 142.05 225.172 142.173C225.255 142.296 225.373 142.391 225.51 142.447C225.647 142.504 225.798 142.518 225.943 142.489C226.088 142.459 226.222 142.387 226.326 142.282C226.431 142.177 226.502 142.044 226.53 141.898C226.559 141.753 226.544 141.602 226.487 141.465C226.43 141.328 226.334 141.211 226.211 141.129C226.087 141.047 225.942 141.003 225.794 141.003C225.695 141.003 225.597 141.023 225.506 141.061C225.415 141.098 225.332 141.154 225.262 141.224C225.193 141.294 225.137 141.377 225.1 141.469C225.062 141.56 225.043 141.658 225.044 141.757Z" fill="#E8E2E2"/>
<path d="M30.3124 77.4371L34.1434 87.2379L31.761 87.2259L29.8535 81.2042L30.3124 77.4371Z" fill="#E8E2E2"/>
<path d="M17.2314 68.3824L15.9146 87.158L29.5104 87.4413L31.0388 68.3824H17.2314Z" fill="#E8E2E2"/>
<path d="M18.5919 69.895L17.4985 85.5221L27.6027 85.9969L29.0153 69.8032L18.5919 69.895Z" fill="#FAFAFA"/>
<path d="M20.8108 72.1057L19.9888 83.0917H25.5636L26.5493 72.1057H20.8108Z" fill="#E8E2E2"/>
<path d="M209.697 14.849H165.824V57.9552H209.697V14.849Z" fill="#E8E2E2"/>
<path d="M208.148 16.0262H167.353V56.8218H208.148V16.0262Z" fill="#FAFAFA"/>
<path d="M194.404 29.7696H181.096V43.0781H194.404V29.7696Z" fill="#E8E2E2"/>
<path d="M227.638 164.899C227.638 164.958 176.675 165.002 113.823 165.002C50.9716 165.002 0 164.958 0 164.899C0 164.839 50.9516 164.795 113.823 164.795C176.695 164.795 227.638 164.843 227.638 164.899Z" fill="black"/>
<path d="M142.052 70.1586L139.432 106.094C139.311 107.751 140.557 109.193 142.214 109.314L200.705 113.578C202.362 113.699 203.803 112.454 203.924 110.796L206.544 74.8606C206.665 73.2033 205.42 71.7618 203.762 71.6409L145.272 67.3765C143.615 67.2556 142.173 68.5012 142.052 70.1586Z" fill="#351C57"/>
<path d="M146.034 94.397L145.771 97.9885L145.404 97.9606L145.639 94.7083L144.797 94.6484L144.821 94.3212L146.034 94.397Z" fill="#F5F5F5"/>
<path d="M149.479 97.9166L149.455 98.2439L146.945 98.0603V97.8009L148.541 96.4521C148.972 96.085 149.068 95.8495 149.084 95.6021C149.116 95.203 148.844 94.9117 148.286 94.8718C148.104 94.8475 147.92 94.8643 147.746 94.9209C147.572 94.9776 147.412 95.0726 147.28 95.1991L147.033 94.9556C147.207 94.7968 147.415 94.6786 147.64 94.6096C147.866 94.5406 148.104 94.5225 148.338 94.5566C149.064 94.6085 149.499 95.0115 149.455 95.6101C149.431 95.9533 149.299 96.2526 148.784 96.6875L147.48 97.7929L149.479 97.9166Z" fill="#F5F5F5"/>
<path d="M153.289 97.5776L152.575 97.5257L152.507 98.4675L152.128 98.4356L152.196 97.4978L150.177 97.3501L150.197 97.0828L152.264 94.8481L152.663 94.88L150.668 97.0548L152.22 97.1706L152.28 96.3405L152.639 96.3685L152.579 97.1945L153.325 97.2384L153.289 97.5776Z" fill="#F5F5F5"/>
<path d="M158.777 97.9765L158.062 97.9246L157.994 98.8664L157.623 98.8385L157.695 97.9007L155.672 97.753L155.692 97.4857L157.763 95.2509L158.162 95.2829L156.167 97.4617L157.719 97.5735L157.779 96.7434L158.138 96.7714L158.078 97.5974L158.793 97.6493L158.777 97.9765Z" fill="#F5F5F5"/>
<path d="M161.917 98.0923C161.869 98.7029 161.411 99.1458 160.537 99.082C160.065 99.0642 159.619 98.8672 159.288 98.5313L159.487 98.252C159.766 98.5493 160.149 98.7267 160.557 98.7468C161.167 98.7907 161.51 98.5153 161.542 98.0804C161.574 97.6454 161.311 97.3142 160.401 97.2463L159.639 97.1945L159.95 95.4107L161.909 95.5543L161.885 95.8816L160.249 95.7618L160.046 96.8952L160.505 96.9271C161.582 97.0069 161.961 97.4618 161.917 98.0923Z" fill="#F5F5F5"/>
<path d="M165.457 98.3359C165.444 98.4904 165.399 98.6404 165.324 98.7765C165.25 98.9127 165.149 99.032 165.026 99.1268C164.903 99.2217 164.762 99.2901 164.612 99.3278C164.461 99.3654 164.305 99.3714 164.152 99.3455C163.202 99.2776 162.731 98.5793 162.815 97.45C162.903 96.2528 163.613 95.6462 164.587 95.7181C164.883 95.7281 165.17 95.8162 165.421 95.9734L165.253 96.2608C165.05 96.1232 164.812 96.047 164.567 96.0413C163.797 95.9854 163.262 96.4404 163.194 97.418C163.194 97.4979 163.194 97.6016 163.194 97.7094C163.311 97.5184 163.482 97.3659 163.685 97.2709C163.888 97.1758 164.114 97.1424 164.336 97.1746C164.488 97.1698 164.639 97.1969 164.78 97.2541C164.921 97.3113 165.048 97.3974 165.154 97.5067C165.259 97.6161 165.341 97.7464 165.393 97.8892C165.445 98.032 165.467 98.1842 165.457 98.3359ZM165.09 98.3359C165.126 97.865 164.799 97.5378 164.248 97.4979C164.136 97.4768 164.022 97.4789 163.911 97.5039C163.8 97.5289 163.696 97.5764 163.604 97.6433C163.513 97.7102 163.436 97.7953 163.378 97.8931C163.321 97.9909 163.284 98.0995 163.27 98.2122C163.242 98.6112 163.541 99.0103 164.16 99.0502C164.27 99.0688 164.382 99.0643 164.49 99.0369C164.598 99.0095 164.699 98.9598 164.787 98.891C164.874 98.8222 164.946 98.7359 164.999 98.6375C165.051 98.5392 165.082 98.431 165.09 98.3199V98.3359Z" fill="#F5F5F5"/>
<path d="M170.35 98.7347C170.306 99.3333 169.839 99.7603 168.977 99.6964C168.503 99.6794 168.053 99.4825 167.72 99.1457L167.919 98.8664C168.203 99.1644 168.59 99.3417 169.001 99.3612C169.591 99.4051 169.938 99.1497 169.97 98.7067C170.002 98.2638 169.723 97.9725 169.057 97.9086H168.801L168.821 97.6373L169.903 96.464L168.075 96.3324L168.099 96.0051L170.397 96.1727V96.4321L169.288 97.6373C170.038 97.7291 170.393 98.16 170.35 98.7347Z" fill="#F5F5F5"/>
<path d="M173.945 98.9544C173.932 99.1088 173.887 99.2589 173.813 99.395C173.739 99.5312 173.637 99.6505 173.514 99.7453C173.392 99.8402 173.251 99.9086 173.1 99.9463C172.95 99.9839 172.793 99.9899 172.641 99.964C171.691 99.8961 171.224 99.1978 171.304 98.0684C171.391 96.8513 172.102 96.2647 173.076 96.3365C173.371 96.3446 173.66 96.4329 173.91 96.5919L173.742 96.8793C173.539 96.7417 173.301 96.6655 173.056 96.6598C172.285 96.6039 171.755 97.0588 171.683 98.0325C171.683 98.1163 171.683 98.2201 171.683 98.3278C171.8 98.1369 171.97 97.9844 172.173 97.8894C172.376 97.7943 172.602 97.7609 172.824 97.7931C172.976 97.7883 173.127 97.8154 173.268 97.8726C173.409 97.9298 173.536 98.0159 173.642 98.1252C173.748 98.2346 173.829 98.3649 173.882 98.5077C173.934 98.6505 173.956 98.8026 173.945 98.9544ZM173.578 98.9544C173.614 98.4835 173.287 98.1562 172.736 98.1163C172.625 98.0953 172.51 98.0974 172.399 98.1224C172.289 98.1474 172.184 98.1948 172.093 98.2618C172.001 98.3287 171.924 98.4137 171.867 98.5116C171.809 98.6094 171.772 98.718 171.759 98.8306C171.731 99.2297 172.03 99.6288 172.649 99.6687C172.758 99.6873 172.871 99.6828 172.979 99.6554C173.087 99.628 173.188 99.5783 173.275 99.5095C173.363 99.4407 173.435 99.3544 173.487 99.256C173.539 99.1577 173.57 99.0495 173.578 98.9384V98.9544Z" fill="#F5F5F5"/>
<path d="M177.421 96.6837V96.9431L175.673 100.155L175.274 100.124L176.982 96.979L175.142 96.8473L175.095 97.5177L174.731 97.4898L174.803 96.4921L177.421 96.6837Z" fill="#F5F5F5"/>
<path d="M182.537 97.0588L182.517 97.3182L180.777 100.511L180.378 100.483L182.09 97.3382L180.25 97.2025L180.198 97.8729L179.835 97.845L179.911 96.8473L182.537 97.0588Z" fill="#F5F5F5"/>
<path d="M185.873 99.8961C185.825 100.531 185.262 100.886 184.408 100.822C183.554 100.758 183.055 100.327 183.099 99.6926C183.112 99.4891 183.194 99.2962 183.331 99.1453C183.468 98.9945 183.652 98.8947 183.854 98.8625C183.691 98.7988 183.554 98.6835 183.463 98.5343C183.372 98.3851 183.333 98.2102 183.351 98.0365C183.391 97.4539 183.913 97.1266 184.672 97.1825C185.43 97.2384 185.909 97.6374 185.869 98.22C185.861 98.3967 185.795 98.5658 185.681 98.7009C185.567 98.836 185.411 98.9293 185.238 98.9663C185.434 99.0263 185.603 99.1511 185.718 99.32C185.834 99.489 185.888 99.6921 185.873 99.8961ZM185.494 99.8642C185.526 99.4212 185.166 99.1179 184.532 99.066C183.897 99.0142 183.506 99.2696 183.474 99.7085C183.443 100.147 183.794 100.455 184.428 100.507C185.063 100.559 185.462 100.307 185.494 99.8642ZM184.556 98.7827C185.111 98.8226 185.462 98.5952 185.494 98.2081C185.526 97.821 185.186 97.5337 184.648 97.4938C184.109 97.4539 183.746 97.6733 183.718 98.0724C183.69 98.4715 183.997 98.7428 184.556 98.7827Z" fill="#F5F5F5"/>
<path d="M189.408 99.3254C189.32 100.523 188.61 101.129 187.636 101.057C187.341 101.047 187.053 100.959 186.802 100.802L186.974 100.515C187.175 100.652 187.412 100.728 187.656 100.734C188.426 100.79 188.961 100.335 189.033 99.3613C189.033 99.2775 189.033 99.1738 189.033 99.066C188.917 99.2567 188.747 99.409 188.545 99.504C188.342 99.5991 188.117 99.6327 187.896 99.6008C187.743 99.6073 187.59 99.5815 187.448 99.5251C187.306 99.4686 187.178 99.3827 187.071 99.2731C186.964 99.1634 186.882 99.0325 186.83 98.8888C186.777 98.7452 186.756 98.5921 186.766 98.4395C186.779 98.2852 186.824 98.1352 186.898 97.9991C186.971 97.8629 187.073 97.7436 187.195 97.6487C187.317 97.5538 187.458 97.4853 187.608 97.4476C187.758 97.41 187.915 97.4039 188.067 97.4299C189.021 97.4977 189.492 98.1961 189.408 99.3254ZM188.953 98.5792C188.985 98.1801 188.682 97.7811 188.063 97.7411C187.955 97.7225 187.844 97.7266 187.737 97.753C187.63 97.7795 187.529 97.8278 187.442 97.8949C187.355 97.9619 187.282 98.0464 187.229 98.1429C187.176 98.2394 187.143 98.3458 187.134 98.4555C187.098 98.9263 187.425 99.2536 187.976 99.2935C188.087 99.3145 188.202 99.3125 188.312 99.2874C188.423 99.2624 188.527 99.215 188.619 99.148C188.711 99.0811 188.788 98.9961 188.845 98.8982C188.903 98.8004 188.939 98.6918 188.953 98.5792Z" fill="#F5F5F5"/>
<path d="M193.168 97.8289L192.908 101.42L192.537 101.393L192.777 98.1402L191.931 98.0763L191.955 97.7491L193.168 97.8289Z" fill="#F5F5F5"/>
<path d="M196.611 101.353L196.587 101.68L194.077 101.496V101.233L195.673 99.8841C196.108 99.517 196.2 99.2816 196.22 99.0381C196.252 98.6391 195.977 98.3438 195.422 98.3039C195.241 98.2807 195.056 98.298 194.882 98.3546C194.709 98.4112 194.549 98.5056 194.416 98.6311L194.173 98.3877C194.346 98.2253 194.552 98.1035 194.778 98.031C195.004 97.9585 195.243 97.9372 195.478 97.9687C196.204 98.0245 196.635 98.4236 196.595 99.0222C196.57 99.2401 196.496 99.4497 196.381 99.6359C196.265 99.8222 196.109 99.9805 195.925 100.1L194.644 101.229L196.611 101.353Z" fill="#F5F5F5"/>
<path d="M199.876 100.886C199.832 101.484 199.361 101.911 198.499 101.848C198.025 101.831 197.575 101.632 197.242 101.293L197.446 101.017C197.728 101.315 198.114 101.492 198.523 101.512C199.118 101.552 199.465 101.301 199.497 100.858C199.529 100.415 199.245 100.124 198.583 100.06L198.328 100.04L198.348 99.7724L199.429 98.5992L197.597 98.4675L197.621 98.1403L199.924 98.3079V98.5673L198.818 99.7644C199.561 99.8802 199.916 100.311 199.876 100.886Z" fill="#F5F5F5"/>
<path d="M172.084 102.557L171.971 104.113L200.647 106.199L200.76 104.642L172.084 102.557Z" fill="#F5F5F5"/>
<path d="M185.826 106.677L185.713 108.233L200.419 109.303L200.532 107.747L185.826 106.677Z" fill="#F5F5F5"/>
<g opacity="0.5">
<path d="M154.76 82.9077L146.677 82.3183C145.586 82.2388 144.638 83.0582 144.559 84.1485L144.191 89.1872C144.112 90.2775 144.931 91.2257 146.022 91.3052L154.105 91.8946C155.195 91.974 156.143 91.1547 156.223 90.0644L156.59 85.0257C156.67 83.9355 155.85 82.9872 154.76 82.9077Z" fill="black"/>
</g>
<path d="M144.235 88.6664L144.279 88.0918L150.477 88.5427C150.814 88.5568 151.145 88.4388 151.397 88.2137C151.649 87.9886 151.804 87.674 151.828 87.3368C151.853 86.9995 151.745 86.6659 151.528 86.4069C151.31 86.1478 151.001 85.9835 150.664 85.9488L144.467 85.4979L144.511 84.9193L150.704 85.3702C150.956 85.3799 151.204 85.4402 151.432 85.5475C151.66 85.6548 151.864 85.807 152.032 85.9949C152.201 86.1828 152.329 86.4027 152.411 86.6413C152.492 86.88 152.525 87.1326 152.507 87.3841C152.488 87.6357 152.42 87.881 152.305 88.1054C152.19 88.3299 152.031 88.5289 151.837 88.6906C151.644 88.8523 151.42 88.9734 151.178 89.0468C150.937 89.1201 150.683 89.1441 150.433 89.1174L144.235 88.6664Z" fill="#C5BEBE"/>
<path d="M152.176 87.0684L152.134 87.6454L156.384 87.9591L156.427 87.382L152.176 87.0684Z" fill="#C5BEBE"/>
<path d="M177.614 77.135L146.669 74.8789L146.475 77.5336L177.42 79.7897L177.614 77.135Z" fill="#F5F5F5"/>
<path d="M99.7241 39.7661V0.179657L102.438 2.37048L104.652 0.179657L106.999 2.11109L109.214 0.179657L111.432 2.24278L114.102 0.179657L116.058 2.11109L118.208 0.179657L120.359 2.30663L122.965 0.179657L125.184 2.24278L127.53 0.179657L130.005 2.30663L132.219 0.179657L134.37 2.04725L136.717 0.179657L139.195 2.04725L141.346 0.179657V39.7661H99.7241Z" fill="#FAFAFA"/>
<path d="M99.7243 39.774H100.494H102.717L111.149 39.7501L141.346 39.7062L141.258 39.794C141.258 28.3011 141.258 14.7571 141.258 0.207508L141.43 0.28732L139.279 2.15092L139.215 2.20679L139.147 2.1589L136.653 0.267368H136.781L136.09 0.814076L134.434 2.13096L134.366 2.18683L134.303 2.12697L132.152 0.267368H132.291L130.077 2.39434L130.009 2.45819L129.937 2.39833L127.463 0.267368H127.598L125.252 2.3265L125.18 2.38636L125.112 2.3265L122.898 0.267368H123.029L120.423 2.39434L120.352 2.45021L120.288 2.38636C119.565 1.67205 118.851 0.961727 118.137 0.259386H118.277L116.126 2.19082L116.054 2.25068L115.99 2.18683C115.341 1.52972 114.689 0.889897 114.035 0.267368H114.162L111.489 2.3265L111.425 2.37439L111.365 2.31852C110.615 1.62017 109.88 0.933793 109.15 0.259386H109.278L107.063 2.19082L107.003 2.2427L106.939 2.19082L104.597 0.267368H104.717C103.958 1.02159 103.224 1.74388 102.502 2.45819L102.442 2.51406L102.382 2.46617L99.6685 0.271358L99.8121 0.203519C99.8121 12.1274 99.7762 22.012 99.7642 28.9356C99.7642 32.3955 99.7642 35.1051 99.7642 36.9607C99.7642 37.8825 99.7642 38.5928 99.7642 39.0757C99.7642 39.5586 99.7642 39.806 99.7642 39.806C99.7642 39.806 99.7642 39.5665 99.7642 39.0917C99.7642 38.6168 99.7642 37.8945 99.7642 36.9966C99.7642 35.145 99.7642 32.4394 99.7403 28.9915C99.7403 22.0679 99.7163 12.1633 99.6964 0.219481V0.0399051L99.84 0.151641L102.554 2.34247H102.434L104.649 0.151641L104.709 0.091783L104.772 0.147651L107.119 2.0751H106.999L109.214 0.143659L109.278 0.0877916L109.342 0.147651L111.556 2.20679H111.433L114.102 0.143659L114.17 0.091783L114.234 0.151641L116.189 2.07909H116.054L118.201 0.147651L118.273 0.0838017L118.34 0.147651L120.491 2.27463H120.356L122.961 0.147651L123.029 0.091783L123.097 0.155632L125.312 2.21477H125.176L127.519 0.155632L127.587 0.0957729L127.654 0.155632L130.133 2.27862H129.993L132.208 0.151641L132.275 0.0877916L132.347 0.151641C133.062 0.766189 133.776 1.38872 134.498 2.01524H134.366L136.023 0.69835L136.713 0.151641L136.777 0.0997643L136.841 0.147651L139.315 2.01524H139.187L141.338 0.151641L141.51 0V0.227463C141.51 14.7771 141.51 28.3211 141.51 39.814V39.9017H141.354L111.101 39.8578L102.681 39.774H100.475C99.9757 39.774 99.7243 39.774 99.7243 39.774Z" fill="black"/>
<path d="M121.377 16.2297C121.377 16.2896 117.494 16.3375 112.709 16.3375C107.925 16.3375 104.046 16.2896 104.046 16.2297C104.046 16.1699 107.925 16.126 112.709 16.126C117.494 16.126 121.377 16.1898 121.377 16.2297Z" fill="black"/>
<path d="M121.377 20.7629C121.377 20.8228 117.494 20.8667 112.709 20.8667C107.925 20.8667 104.046 20.8228 104.046 20.7629C104.046 20.7031 107.925 20.6592 112.709 20.6592C117.494 20.6592 121.377 20.7071 121.377 20.7629Z" fill="black"/>
<path d="M121.377 25.2803C121.377 25.3362 117.494 25.3841 112.709 25.3841C107.925 25.3841 104.046 25.3362 104.046 25.2803C104.046 25.2245 107.925 25.1766 112.709 25.1766C117.494 25.1766 121.377 25.2245 121.377 25.2803Z" fill="black"/>
<path d="M121.377 29.7977C121.377 29.8536 117.494 29.9015 112.709 29.9015C107.925 29.9015 104.046 29.8536 104.046 29.7977C104.046 29.7419 107.925 29.694 112.709 29.694C117.494 29.694 121.377 29.7379 121.377 29.7977Z" fill="black"/>
<path d="M135.664 16.1538C133.671 16.2918 131.671 16.2918 129.678 16.1538C131.671 16.0159 133.671 16.0159 135.664 16.1538Z" fill="black"/>
<path d="M135.664 20.7629C133.671 20.9009 131.671 20.9009 129.678 20.7629C131.671 20.6249 133.671 20.6249 135.664 20.7629Z" fill="black"/>
<path d="M135.664 25.3719C133.671 25.5099 131.671 25.5099 129.678 25.3719C131.671 25.234 133.671 25.234 135.664 25.3719Z" fill="black"/>
<path d="M135.664 29.9812C133.671 30.1192 131.671 30.1192 129.678 29.9812C131.671 29.8433 133.671 29.8433 135.664 29.9812Z" fill="black"/>
<path d="M99.7524 34.4467V33.1936L141.25 31.3101V34.6382L99.7524 34.4467Z" fill="#E8E2E2"/>
<path d="M141.658 166L97.1547 165.796C95.8818 165.791 94.6224 165.534 93.4486 165.042C92.2748 164.549 91.2095 163.83 90.3135 162.926C89.4174 162.022 88.7083 160.95 88.2265 159.772C87.7447 158.594 87.4997 157.332 87.5055 156.059L87.9764 44.4869C87.9821 43.2134 88.2386 41.9536 88.7313 40.7793C89.2239 39.605 89.9431 38.5392 90.8476 37.6428C91.7521 36.7465 92.8244 36.037 94.0031 35.555C95.1818 35.073 96.4439 34.8279 97.7173 34.8337L142.22 35.0412C144.79 35.0528 147.251 36.0847 149.06 37.9098C150.87 39.735 151.88 42.2041 151.869 44.7742L151.399 156.347C151.393 157.62 151.137 158.88 150.645 160.055C150.152 161.229 149.433 162.295 148.528 163.192C147.624 164.088 146.551 164.798 145.372 165.28C144.193 165.761 142.931 166.006 141.658 166Z" fill="black"/>
<path d="M142.152 38.8921L133.524 38.8522C133.243 38.8569 132.965 38.9169 132.707 39.029C132.449 39.141 132.215 39.3028 132.02 39.5052C131.824 39.7075 131.67 39.9464 131.567 40.2082C131.463 40.47 131.413 40.7496 131.417 41.031V42.5954C131.427 43.1641 131.211 43.7134 130.816 44.1227C130.421 44.5319 129.879 44.7677 129.31 44.7782L112.494 44.6984C111.926 44.6827 111.387 44.4425 110.996 44.0303C110.605 43.6181 110.393 43.0677 110.407 42.4996V40.9353C110.421 40.3668 110.209 39.8159 109.818 39.4031C109.427 38.9903 108.888 38.7492 108.32 38.7325H105.283L97.733 38.6966C96.8411 38.6918 95.9571 38.863 95.1314 39.2003C94.3058 39.5377 93.5547 40.0345 92.9213 40.6624C92.2878 41.2902 91.7844 42.0369 91.4398 42.8595C91.0953 43.6822 90.9163 44.5647 90.9131 45.4566L90.4502 154.359C90.4471 155.251 90.6197 156.134 90.9582 156.959C91.2967 157.784 91.7945 158.534 92.4231 159.166C93.0517 159.798 93.7987 160.301 94.6215 160.644C95.4443 160.987 96.3267 161.165 97.2182 161.167L141.633 161.371C142.525 161.376 143.409 161.204 144.235 160.867C145.061 160.53 145.812 160.033 146.445 159.405C147.079 158.777 147.582 158.03 147.927 157.208C148.271 156.385 148.45 155.503 148.453 154.611L148.936 45.708C148.94 44.8144 148.768 43.9288 148.429 43.1021C148.09 42.2753 147.591 41.5237 146.96 40.8904C146.33 40.257 145.581 39.7545 144.756 39.4115C143.93 39.0686 143.046 38.8921 142.152 38.8921Z" fill="#FAFAFA"/>
<path d="M117.012 150.947C117.038 151.134 117.006 151.325 116.921 151.493C116.836 151.661 116.701 151.8 116.535 151.889C116.369 151.979 116.18 152.016 115.992 151.995C115.805 151.974 115.628 151.897 115.486 151.772C115.344 151.648 115.243 151.484 115.197 151.301C115.151 151.118 115.162 150.925 115.228 150.748C115.295 150.572 115.414 150.42 115.569 150.313C115.725 150.206 115.909 150.149 116.098 150.149C116.325 150.134 116.549 150.209 116.72 150.359C116.891 150.509 116.996 150.72 117.012 150.947Z" fill="black"/>
<path d="M119.86 150.959C119.887 151.147 119.856 151.339 119.771 151.508C119.686 151.678 119.551 151.817 119.384 151.908C119.217 151.999 119.026 152.036 118.838 152.015C118.649 151.994 118.471 151.916 118.328 151.791C118.185 151.666 118.084 151.501 118.038 151.317C117.992 151.133 118.003 150.939 118.071 150.761C118.138 150.584 118.258 150.431 118.415 150.324C118.571 150.217 118.757 150.16 118.947 150.161C119.174 150.146 119.397 150.221 119.569 150.371C119.74 150.521 119.845 150.732 119.86 150.959Z" fill="black"/>
<path d="M122.698 150.971C122.724 151.158 122.692 151.349 122.607 151.517C122.522 151.686 122.387 151.824 122.221 151.914C122.055 152.003 121.866 152.04 121.678 152.019C121.491 151.998 121.314 151.921 121.172 151.796C121.03 151.672 120.929 151.508 120.883 151.325C120.837 151.142 120.848 150.949 120.915 150.772C120.981 150.596 121.1 150.444 121.255 150.337C121.411 150.23 121.595 150.173 121.784 150.173C121.896 150.165 122.009 150.179 122.116 150.215C122.223 150.251 122.322 150.308 122.407 150.382C122.492 150.456 122.562 150.546 122.611 150.648C122.661 150.749 122.691 150.859 122.698 150.971Z" fill="black"/>
<path d="M137.85 60.1937H101.492C99.5617 60.1937 97.9966 61.7588 97.9966 63.6895V101.424C97.9966 103.355 99.5617 104.92 101.492 104.92H137.85C139.781 104.92 141.346 103.355 141.346 101.424V63.6895C141.346 61.7588 139.781 60.1937 137.85 60.1937Z" fill="black"/>
<path d="M137.85 105.12H101.488C100.509 105.119 99.5699 104.729 98.8778 104.036C98.1856 103.343 97.7969 102.404 97.7969 101.424V63.6896C97.7969 62.7102 98.1856 61.7709 98.8778 61.0781C99.5699 60.3852 100.509 59.9954 101.488 59.9943H137.85C138.83 59.9954 139.769 60.385 140.462 61.0778C141.155 61.7706 141.544 62.7099 141.546 63.6896V101.424C141.544 102.404 141.155 103.343 140.462 104.036C139.769 104.729 138.83 105.119 137.85 105.12ZM101.488 60.3934C100.615 60.3944 99.7772 60.7422 99.16 61.3602C98.5427 61.9783 98.1959 62.8161 98.1959 63.6896V101.424C98.1959 102.298 98.5427 103.136 99.16 103.754C99.7772 104.372 100.615 104.72 101.488 104.721H137.85C138.724 104.72 139.562 104.372 140.18 103.754C140.798 103.136 141.145 102.298 141.146 101.424V63.6896C141.145 62.8157 140.798 61.9779 140.18 61.36C139.562 60.7421 138.724 60.3944 137.85 60.3934H101.488Z" fill="black"/>
<path d="M130.312 111.479V117.394H129.062V112.666H129.027L127.672 113.515V112.406L129.137 111.479H130.312ZM130.058 127.524C129.561 127.522 129.134 127.4 128.776 127.157C128.419 126.915 128.145 126.563 127.953 126.103C127.762 125.643 127.668 125.089 127.669 124.442C127.669 123.797 127.765 123.247 127.955 122.793C128.148 122.338 128.422 121.993 128.779 121.756C129.137 121.517 129.563 121.398 130.058 121.398C130.553 121.398 130.979 121.517 131.335 121.756C131.693 121.995 131.968 122.341 132.161 122.796C132.354 123.248 132.449 123.797 132.447 124.442C132.447 125.091 132.351 125.646 132.158 126.106C131.967 126.566 131.694 126.918 131.338 127.16C130.982 127.403 130.555 127.524 130.058 127.524ZM130.058 126.487C130.397 126.487 130.668 126.317 130.87 125.976C131.072 125.635 131.172 125.124 131.17 124.442C131.17 123.993 131.124 123.62 131.032 123.321C130.941 123.023 130.812 122.799 130.645 122.648C130.479 122.498 130.284 122.423 130.058 122.423C129.721 122.423 129.452 122.592 129.249 122.929C129.047 123.266 128.945 123.77 128.943 124.442C128.943 124.897 128.989 125.276 129.079 125.58C129.171 125.882 129.301 126.11 129.469 126.262C129.636 126.412 129.833 126.487 130.058 126.487Z" fill="black"/>
<path d="M135.97 111.163C136.094 111.163 136.213 111.183 136.328 111.225C136.443 111.266 136.545 111.333 136.635 111.423C136.726 111.514 136.798 111.635 136.85 111.785C136.904 111.935 136.931 112.119 136.931 112.336C136.931 112.541 136.908 112.723 136.862 112.884C136.817 113.044 136.751 113.18 136.666 113.292C136.581 113.404 136.478 113.489 136.357 113.548C136.236 113.606 136.102 113.635 135.953 113.635C135.792 113.635 135.65 113.604 135.527 113.542C135.405 113.479 135.305 113.394 135.23 113.287C135.156 113.179 135.111 113.057 135.095 112.923H135.597C135.616 113.01 135.657 113.078 135.72 113.127C135.783 113.175 135.86 113.199 135.953 113.199C136.109 113.199 136.228 113.131 136.31 112.994C136.391 112.857 136.433 112.67 136.433 112.432H136.417C136.381 112.502 136.332 112.563 136.271 112.614C136.21 112.664 136.14 112.703 136.061 112.73C135.983 112.757 135.899 112.771 135.811 112.771C135.669 112.771 135.542 112.738 135.431 112.671C135.32 112.605 135.232 112.513 135.168 112.396C135.104 112.28 135.072 112.146 135.072 111.997C135.071 111.835 135.108 111.692 135.183 111.566C135.258 111.44 135.363 111.341 135.498 111.27C135.634 111.197 135.791 111.162 135.97 111.163ZM135.974 111.562C135.895 111.562 135.824 111.581 135.762 111.619C135.701 111.656 135.653 111.707 135.617 111.77C135.582 111.834 135.564 111.904 135.565 111.983C135.565 112.062 135.582 112.133 135.617 112.197C135.652 112.259 135.7 112.309 135.76 112.347C135.821 112.384 135.891 112.402 135.969 112.402C136.028 112.402 136.082 112.391 136.133 112.369C136.183 112.347 136.226 112.317 136.263 112.279C136.301 112.24 136.33 112.195 136.351 112.144C136.372 112.093 136.383 112.039 136.383 111.982C136.382 111.906 136.364 111.836 136.329 111.772C136.294 111.709 136.245 111.658 136.183 111.62C136.121 111.581 136.051 111.562 135.974 111.562ZM135.97 115.163C136.094 115.163 136.213 115.183 136.328 115.225C136.443 115.266 136.545 115.333 136.635 115.423C136.726 115.514 136.798 115.635 136.85 115.785C136.904 115.935 136.931 116.119 136.931 116.336C136.931 116.541 136.908 116.723 136.862 116.884C136.817 117.044 136.751 117.18 136.666 117.292C136.581 117.404 136.478 117.489 136.357 117.548C136.236 117.606 136.102 117.635 135.953 117.635C135.792 117.635 135.65 117.604 135.527 117.542C135.405 117.479 135.305 117.394 135.23 117.287C135.156 117.179 135.111 117.057 135.095 116.923H135.597C135.616 117.01 135.657 117.078 135.72 117.127C135.783 117.175 135.86 117.199 135.953 117.199C136.109 117.199 136.228 117.131 136.31 116.994C136.391 116.857 136.433 116.67 136.433 116.432H136.417C136.381 116.502 136.332 116.563 136.271 116.614C136.21 116.664 136.14 116.703 136.061 116.73C135.983 116.757 135.899 116.771 135.811 116.771C135.669 116.771 135.542 116.738 135.431 116.671C135.32 116.605 135.232 116.513 135.168 116.396C135.104 116.28 135.072 116.146 135.072 115.997C135.071 115.835 135.108 115.692 135.183 115.566C135.258 115.44 135.363 115.341 135.498 115.27C135.634 115.197 135.791 115.162 135.97 115.163ZM135.974 115.562C135.895 115.562 135.824 115.581 135.762 115.619C135.701 115.656 135.653 115.707 135.617 115.77C135.582 115.834 135.564 115.904 135.565 115.983C135.565 116.062 135.582 116.133 135.617 116.197C135.652 116.259 135.7 116.309 135.76 116.347C135.821 116.384 135.891 116.402 135.969 116.402C136.028 116.402 136.082 116.391 136.133 116.369C136.183 116.347 136.226 116.317 136.263 116.279C136.301 116.24 136.33 116.195 136.351 116.144C136.372 116.093 136.383 116.039 136.383 115.982C136.382 115.906 136.364 115.836 136.329 115.772C136.294 115.709 136.245 115.658 136.183 115.62C136.121 115.581 136.051 115.562 135.974 115.562Z" fill="black"/>
<path d="M138.001 113.755H134.905V114.146H138.001V113.755Z" fill="black"/>
<path d="M116.577 112.522H100.595V113.017H116.577V112.522Z" fill="black"/>
<path d="M110.296 114.107H100.595V114.601H110.296V114.107Z" fill="black"/>
<path d="M134.969 137.252L103.044 137.104C102.713 137.104 102.45 136.741 102.45 136.306L102.486 127.95C102.486 127.507 102.757 127.152 103.088 127.152L135.037 127.299C135.368 127.299 135.635 127.659 135.631 128.098L135.599 136.458C135.579 136.897 135.308 137.252 134.969 137.252Z" fill="#C5BEBE"/>
<g opacity="0.5">
<path d="M134.969 137.252L103.044 137.104C102.713 137.104 102.45 136.741 102.45 136.306L102.486 127.95C102.486 127.507 102.757 127.152 103.088 127.152L135.037 127.299C135.368 127.299 135.635 127.659 135.631 128.098L135.599 136.458C135.579 136.897 135.308 137.252 134.969 137.252Z" fill="black"/>
</g>
<path d="M134.969 134.574L103.044 134.426C102.713 134.426 102.45 134.063 102.45 133.628L102.486 125.272C102.486 124.829 102.757 124.474 103.088 124.474L135.037 124.622C135.219 124.653 135.383 124.753 135.493 124.902C135.604 125.05 135.653 125.236 135.631 125.42L135.599 133.78C135.579 134.215 135.308 134.574 134.969 134.574Z" fill="#C5BEBE"/>
<path d="M117.582 128.915C117.582 129.45 117.207 129.769 116.596 129.765H115.954V130.564H115.702V128.061H116.612C117.215 128.057 117.582 128.365 117.582 128.915ZM117.326 128.915C117.326 128.516 117.075 128.285 116.596 128.281H115.962V129.53H116.612C117.071 129.534 117.326 129.307 117.326 128.915Z" fill="#F5F5F5"/>
<path d="M119.506 129.901H118.173L117.882 130.572H117.618L118.724 128.077H118.975L120.056 130.584H119.805L119.506 129.901ZM119.414 129.686L118.847 128.341L118.265 129.682L119.414 129.686Z" fill="#F5F5F5"/>
<path d="M121.138 129.714V130.576H120.89V129.71L119.937 128.069H120.204L121.022 129.478L121.848 128.077H122.099L121.138 129.714Z" fill="#F5F5F5"/>
<path d="M126.393 89.764C126.3 89.7816 126.205 89.7883 126.11 89.784L125.312 89.8039L122.319 89.8358L112.279 89.8678H112.191V89.78C112.115 89.2492 112.035 88.6866 111.955 88.1159C111.273 83.2354 110.682 78.8777 110.311 76.0564L110.375 76.1163L107.701 76.0843H106.991C106.909 76.0929 106.826 76.0929 106.744 76.0843C106.826 76.0774 106.909 76.0774 106.991 76.0843L107.701 76.0644L110.375 76.0364H110.431V76.0963C110.83 78.9097 111.472 83.2793 112.155 88.1438C112.235 88.7145 112.311 89.2772 112.386 89.8079L112.283 89.7161L122.323 89.752L125.316 89.784H126.114C126.207 89.7717 126.3 89.765 126.393 89.764Z" fill="#F5F5F5"/>
<path d="M111.863 86.8389H112.143H112.941L115.962 86.811L126.385 86.7711L126.285 86.8549C126.593 85.103 126.928 83.2035 127.275 81.2402C127.451 80.2305 127.626 79.2449 127.794 78.2951L127.897 78.4148L115.615 78.3789L111.979 78.351L110.997 78.331H111.979L115.615 78.2991L127.897 78.2672H128.017L127.997 78.3869C127.83 79.3327 127.654 80.3223 127.478 81.3319C127.131 83.2953 126.792 85.1908 126.481 86.9467V87.0265H126.397L115.974 86.9906L112.953 86.9626H112.155C112.054 86.9316 111.956 86.8902 111.863 86.8389Z" fill="#F5F5F5"/>
<path d="M115.814 93.5991C115.794 93.5991 115.794 93.4714 115.73 93.2639C115.641 92.9708 115.459 92.7145 115.211 92.5336C115.014 92.3872 114.78 92.2984 114.536 92.2772C114.291 92.256 114.046 92.3031 113.826 92.4134C113.607 92.5237 113.422 92.6928 113.294 92.9019C113.165 93.1109 113.097 93.3516 113.097 93.5971C113.097 93.8426 113.165 94.0833 113.294 94.2923C113.422 94.5014 113.607 94.6704 113.826 94.7808C114.046 94.8911 114.291 94.9382 114.536 94.917C114.78 94.8958 115.014 94.807 115.211 94.6606C115.458 94.4809 115.64 94.2261 115.73 93.9343C115.794 93.7228 115.794 93.5991 115.814 93.5991C115.844 93.7156 115.844 93.8377 115.814 93.9542C115.747 94.2813 115.566 94.574 115.303 94.7803C115.107 94.9358 114.874 95.039 114.627 95.0802C114.38 95.1214 114.127 95.0992 113.891 95.0157C113.598 94.9113 113.346 94.7192 113.167 94.4656C112.988 94.212 112.893 93.9093 112.893 93.5991C112.893 93.2889 112.988 92.9862 113.167 92.7326C113.346 92.479 113.598 92.2869 113.891 92.1824C114.127 92.099 114.38 92.0768 114.627 92.118C114.874 92.1592 115.107 92.2624 115.303 92.4179C115.567 92.6252 115.748 92.9194 115.814 93.2479C115.843 93.3632 115.843 93.4838 115.814 93.5991Z" fill="#F5F5F5"/>
<path d="M124.889 93.5991C124.869 93.5991 124.869 93.4714 124.805 93.2639C124.717 92.9701 124.535 92.7135 124.286 92.5336C124.089 92.3872 123.855 92.2984 123.611 92.2772C123.366 92.256 123.12 92.3031 122.901 92.4134C122.682 92.5237 122.497 92.6928 122.368 92.9019C122.239 93.1109 122.171 93.3516 122.171 93.5971C122.171 93.8426 122.239 94.0833 122.368 94.2923C122.497 94.5014 122.682 94.6704 122.901 94.7808C123.12 94.8911 123.366 94.9382 123.611 94.917C123.855 94.8958 124.089 94.807 124.286 94.6606C124.534 94.4822 124.717 94.2269 124.805 93.9343C124.869 93.7228 124.869 93.5991 124.889 93.5991C124.919 93.7156 124.919 93.8377 124.889 93.9542C124.821 94.2813 124.641 94.574 124.378 94.7803C124.182 94.9358 123.949 95.039 123.702 95.0802C123.455 95.1214 123.201 95.0992 122.965 95.0157C122.673 94.9113 122.421 94.7192 122.242 94.4656C122.063 94.212 121.967 93.9093 121.967 93.5991C121.967 93.2889 122.063 92.9862 122.242 92.7326C122.421 92.479 122.673 92.2869 122.965 92.1824C123.201 92.099 123.455 92.0768 123.702 92.118C123.949 92.1592 124.182 92.2624 124.378 92.4179C124.641 92.6242 124.821 92.9169 124.889 93.2439C124.918 93.3605 124.918 93.4825 124.889 93.5991Z" fill="#F5F5F5"/>
<path d="M127.132 80.881C129.358 80.881 131.162 79.0765 131.162 76.8505C131.162 74.6246 129.358 72.8201 127.132 72.8201C124.906 72.8201 123.101 74.6246 123.101 76.8505C123.101 79.0765 124.906 80.881 127.132 80.881Z" fill="#C5BEBE"/>
<path d="M129.151 75.7928C128.577 76.5465 127.95 77.2586 127.275 77.9238L126.696 78.5264L126.633 78.5982L126.561 78.5344C126.039 78.1148 125.556 77.6501 125.116 77.1457C125.674 77.5166 126.201 77.9316 126.692 78.3867H126.553C126.736 78.1952 126.928 77.9877 127.123 77.7762C127.749 77.0656 128.427 76.4027 129.151 75.7928Z" fill="black"/>
<path d="M85.4222 46.5578C85.3703 46.6974 84.1611 57.7753 84.1611 57.7753L88.8341 56.9333L90.0313 47.7789L85.4222 46.5578Z" fill="black"/>
<path d="M84.1612 57.7713L83.8101 57.5638L84.8716 46.4022L85.4063 46.5538L84.1612 57.7713Z" fill="black"/>
<path d="M87.6564 48.4733C87.7754 48.4733 87.8719 48.3768 87.8719 48.2578C87.8719 48.1388 87.7754 48.0423 87.6564 48.0423C87.5374 48.0423 87.4409 48.1388 87.4409 48.2578C87.4409 48.3768 87.5374 48.4733 87.6564 48.4733Z" fill="black"/>
<path d="M81.3558 63.7453L90.3187 66.0758L88.9499 54.9381L88.7663 54.4313L85.4861 53.9245L85.8851 51.4983C85.9366 51.2314 86.042 50.9778 86.195 50.7531C86.3479 50.5284 86.5451 50.3374 86.7746 50.1916C87.004 50.0459 87.2608 49.9486 87.5292 49.9056C87.7976 49.8627 88.0719 49.8751 88.3354 49.9419L89.4128 50.2293C89.7926 50.3292 90.147 50.5081 90.453 50.7542C90.759 51.0004 91.0097 51.3083 91.1886 51.6579C91.8111 52.879 92.4217 54.2118 92.3618 54.0961L97.1705 67.1373C97.5893 67.9738 97.7615 68.9122 97.6668 69.8428C97.5721 70.7735 97.2145 71.6579 96.6357 72.3929C95.0874 74.3882 91.3482 73.0035 89.5844 72.6643L78.1035 70.1342L81.3558 63.7453Z" fill="#C75F5F"/>
<path d="M47.3284 83.0916C46.3539 81.9696 45.8196 80.5321 45.8247 79.0459C45.8299 77.5598 46.3741 76.126 47.3563 75.0107L57.1532 63.897L59.775 71.2316C59.5954 71.3514 52.145 79.3365 52.145 79.3365L58.5299 87.3177C59.0149 87.922 59.3388 88.6394 59.4714 89.4028C59.604 90.1663 59.5409 90.9509 59.2881 91.6833L59.0008 92.8606C58.9021 93.2625 58.7162 93.6378 58.4562 93.9598C58.1963 94.2819 57.8686 94.5428 57.4966 94.7241C57.1245 94.9053 56.7171 95.0025 56.3033 95.0087C55.8895 95.015 55.4794 94.9301 55.102 94.7601L53.3023 93.962C53.2541 93.9373 53.2115 93.9031 53.177 93.8615C53.1425 93.8198 53.1168 93.7716 53.1015 93.7197C53.0862 93.6678 53.0816 93.6134 53.088 93.5597C53.0944 93.506 53.1116 93.4541 53.1387 93.4073C53.1726 93.3533 53.2197 93.3088 53.2755 93.2781C53.3314 93.2474 53.3941 93.2314 53.4579 93.2317H55.8961C56.1442 93.2326 56.3853 93.15 56.5807 92.9973C56.7761 92.8446 56.9145 92.6306 56.9736 92.3897L47.3284 83.0916Z" fill="#C75F5F"/>
<path d="M50.7681 77.9116C51.0907 78.1084 51.3802 78.3548 51.626 78.6419C51.923 78.8839 52.1583 79.193 52.3124 79.5438C52.003 79.3294 51.7227 79.0759 51.4784 78.7895C51.1851 78.5475 50.9435 78.249 50.7681 77.9116Z" fill="#9B4E3D"/>
<path d="M53.1025 159.515C53.1025 159.515 63.1628 127.551 63.3783 126.513C63.5698 125.575 59.7269 102.57 59.24 96.6197L72.8399 97.1265V97.2382L78.6223 97.5574L73.4345 162.931H67.1853L67.8078 141.242C63.9489 151.618 58.418 162.157 58.418 162.157L53.1025 159.515Z" fill="#C75F5F"/>
<path d="M67.5522 149.004C67.5522 148.804 67.6281 141.737 67.6281 141.737C67.6281 141.737 70.3895 133.875 70.4454 134.075C70.5013 134.275 67.5522 149.004 67.5522 149.004Z" fill="#9B4E3D"/>
<path d="M62.568 47.356C61.8457 46.3583 60.2096 46.4262 59.2878 47.2442C58.366 48.0623 58.0467 49.3712 58.0108 50.6043C57.9789 51.7496 58.0587 53.1144 57.1369 53.7968C56.7334 54.0224 56.3147 54.2198 55.8838 54.3874C55.5314 54.5875 55.2385 54.8778 55.0352 55.2284C54.8318 55.579 54.7253 55.9773 54.7265 56.3826C54.7265 56.9892 54.974 57.6916 54.5709 58.1545C54.3397 58.3559 54.0785 58.5202 53.7967 58.6413C53.4464 58.8914 53.1699 59.2313 52.9965 59.6253C52.823 60.0193 52.759 60.4527 52.8111 60.88C52.847 61.5579 53.041 62.218 53.3777 62.8075C53.3777 62.8075 59.8345 62.7436 62.7715 62.8075C62.7715 62.8075 62.7197 52.4559 62.568 47.356Z" fill="black"/>
<path d="M73.0393 60.6565C73.0194 59.9302 73.2349 57.041 73.2349 57.041C73.2349 57.041 75.9285 56.7776 76.1201 54.0441C76.3116 51.3106 76.2119 45.0015 76.2119 45.0015L71.3433 42.4914L65.9321 46.6216L66.4748 60.6844L73.0393 60.6565Z" fill="#C75F5F"/>
<path d="M75.6296 49.5947C75.6302 49.6399 75.6217 49.6847 75.6046 49.7266C75.5875 49.7685 75.5623 49.8066 75.5303 49.8385C75.4983 49.8705 75.4603 49.8958 75.4184 49.9128C75.3765 49.9299 75.3317 49.9384 75.2864 49.9379C75.2003 49.9286 75.1206 49.8879 75.0626 49.8234C75.0047 49.7589 74.9727 49.6753 74.9727 49.5887C74.9727 49.502 75.0047 49.4184 75.0626 49.3539C75.1206 49.2895 75.2003 49.2487 75.2864 49.2395C75.3325 49.2395 75.3782 49.2487 75.4206 49.2667C75.463 49.2847 75.5014 49.3111 75.5334 49.3442C75.5655 49.3774 75.5905 49.4166 75.607 49.4596C75.6235 49.5027 75.6312 49.5486 75.6296 49.5947Z" fill="black"/>
<path d="M75.9647 49.2157C75.9208 49.2596 75.6694 49.0361 75.3022 49.0122C74.9351 48.9882 74.6597 49.1678 74.6198 49.1159C74.5799 49.0641 74.6478 49.0122 74.7715 48.9284C74.9328 48.8213 75.1251 48.7707 75.3182 48.7847C75.5119 48.7984 75.6956 48.8755 75.841 49.0042C75.9527 49.108 75.9846 49.1958 75.9647 49.2157Z" fill="black"/>
<path d="M71.6785 49.5508C71.6785 49.6429 71.642 49.7312 71.5769 49.7963C71.5117 49.8614 71.4234 49.898 71.3314 49.898C71.2452 49.8888 71.1655 49.848 71.1076 49.7836C71.0496 49.7191 71.0176 49.6355 71.0176 49.5488C71.0176 49.4622 71.0496 49.3786 71.1076 49.3141C71.1655 49.2496 71.2452 49.2089 71.3314 49.1996C71.3773 49.1996 71.4228 49.2088 71.4652 49.2265C71.5075 49.2441 71.546 49.2701 71.5783 49.3027C71.6106 49.3354 71.6361 49.3741 71.6533 49.4167C71.6705 49.4593 71.6791 49.5049 71.6785 49.5508Z" fill="black"/>
<path d="M71.8939 49.1718C71.85 49.2157 71.5985 48.9962 71.2314 48.9722C70.8643 48.9483 70.5849 49.1239 70.549 49.076C70.5131 49.0281 70.577 48.9683 70.6967 48.8845C70.8592 48.777 71.0533 48.7278 71.2474 48.7448C71.441 48.7584 71.6248 48.8356 71.7701 48.9643C71.8779 49.064 71.9178 49.1518 71.8939 49.1718Z" fill="black"/>
<path d="M73.1831 52.3723C73.3793 52.3182 73.5822 52.2927 73.7857 52.2965C73.8815 52.2965 73.9693 52.2965 73.9892 52.2087C74.0015 52.106 73.9834 52.002 73.9373 51.9094C73.8615 51.658 73.7817 51.3986 73.6939 51.1113C73.4664 50.444 73.2877 49.7612 73.1592 49.0681C73.4371 49.7153 73.6665 50.3822 73.8456 51.0634C73.9254 51.3387 74.0052 51.6021 74.077 51.8615C74.1331 51.9869 74.1444 52.1278 74.1089 52.2605C74.0954 52.2945 74.0738 52.3246 74.046 52.3483C74.0182 52.3719 73.985 52.3884 73.9493 52.3962C73.8964 52.4036 73.8427 52.4036 73.7897 52.3962C73.5873 52.414 73.3835 52.406 73.1831 52.3723Z" fill="black"/>
<path d="M73.235 57.0411C71.9637 56.9737 70.7401 56.5353 69.7153 55.78C69.7153 55.78 70.5134 57.7993 73.1712 57.7115L73.235 57.0411Z" fill="#9B4E3D"/>
<path d="M62.0774 49.1956C62.1053 49.0001 62.0495 49.4071 62.0774 49.1038C62.1155 48.7324 62.1742 48.3634 62.253 47.9985C63.7654 42.3079 68.6618 41.2943 69.6316 41.3063C70.6651 41.3063 73.6221 41.2304 75.2822 43.3015C75.9107 44.0398 76.3296 44.9332 76.4952 45.8884C76.6609 46.8437 76.5672 47.826 76.224 48.7327L71.9182 47.9546C72.2374 46.8811 71.7984 45.5363 71.547 44.9097L71.5231 44.8858C70.721 48.9722 66.3034 49.3513 66.3034 49.3513L66.2475 55.8798C63.0551 55.4169 62.0016 51.566 62.0774 49.1956Z" fill="black"/>
<path d="M65.0186 49.7504C65.1522 49.7444 65.2861 49.7538 65.4176 49.7784C65.7654 49.8096 66.1153 49.8096 66.4631 49.7784C66.976 49.7393 67.481 49.6292 67.9636 49.4511C69.156 49.0211 70.1496 48.1694 70.757 47.0568C71.0098 46.6075 71.1991 46.1254 71.3197 45.6242C71.4106 45.1548 71.4733 44.6804 71.5072 44.2035C71.5442 44.3332 71.5604 44.4679 71.5551 44.6026C71.5646 44.9601 71.5338 45.3175 71.4633 45.6681C71.3576 46.1892 71.1761 46.692 70.9246 47.1605C70.4871 47.9715 69.8452 48.654 69.0627 49.1405C68.2801 49.627 67.384 49.9005 66.4631 49.934C66.1076 49.9508 65.7512 49.9253 65.4016 49.8582C65.2689 49.8434 65.1395 49.807 65.0186 49.7504Z" fill="black"/>
<path d="M66.3517 52.3761C66.3796 51.977 66.5672 50.9834 66.4315 50.5963C66.2958 50.2092 65.8648 50.1214 65.3899 50.1254C65.1218 50.1352 64.8672 50.2459 64.677 50.4353C64.4869 50.6247 64.3752 50.8788 64.3644 51.147C64.3533 51.379 64.4005 51.61 64.5016 51.8191C64.6026 52.0282 64.7544 52.2087 64.943 52.3442C65.1498 52.4593 65.3799 52.5263 65.6162 52.5402C65.8526 52.554 66.0889 52.5143 66.3078 52.424" fill="#C75F5F"/>
<path d="M65.8405 51.8374C65.8405 51.8095 65.7048 51.8694 65.5332 51.8095C65.4263 51.7677 65.3348 51.6939 65.2712 51.5982C65.2076 51.5026 65.1751 51.3896 65.1781 51.2748C65.17 51.2169 65.1748 51.1579 65.192 51.1021C65.2093 51.0462 65.2386 50.9948 65.2779 50.9515C65.355 50.895 65.4499 50.8681 65.5452 50.8757C65.7328 50.8997 65.8605 50.9515 65.8724 50.9196C65.8844 50.8877 65.7926 50.8039 65.5732 50.736C65.5057 50.7178 65.4351 50.7144 65.3662 50.7261C65.2973 50.7378 65.2317 50.7644 65.1741 50.8039C65.1077 50.8634 65.0565 50.9379 65.0246 51.0212C64.9927 51.1044 64.981 51.1941 64.9905 51.2827C64.9859 51.4487 65.0364 51.6115 65.1342 51.7457C65.2231 51.8554 65.3497 51.928 65.4894 51.9492C65.7447 51.9811 65.8605 51.8534 65.8405 51.8374Z" fill="#9B4E3D"/>
<path d="M64.699 52.3083C64.6618 52.453 64.6443 52.602 64.6471 52.7513C64.6615 52.9054 64.7343 53.0482 64.8506 53.1503C64.9168 53.2122 64.996 53.2586 65.0823 53.286C65.1687 53.3135 65.2601 53.3214 65.3498 53.3092C65.4396 53.297 65.5256 53.2649 65.6014 53.2153C65.6773 53.1658 65.7411 53.1 65.7884 53.0226C65.8727 52.8959 65.9055 52.7418 65.8802 52.5917C65.8403 52.3243 65.6926 52.1926 65.7166 52.1926C65.7405 52.1926 65.9281 52.2604 66.0238 52.5917C66.0504 52.6848 66.0577 52.7823 66.0453 52.8784C66.033 52.9744 66.0012 53.0669 65.952 53.1503C65.8938 53.2564 65.8115 53.3473 65.7117 53.4158C65.612 53.4843 65.4976 53.5285 65.3777 53.5448C65.2578 53.5611 65.1358 53.5491 65.0214 53.5097C64.9069 53.4703 64.8034 53.4046 64.7189 53.3179C64.65 53.2504 64.5954 53.1696 64.5584 53.0805C64.5213 52.9914 64.5027 52.8957 64.5034 52.7992C64.5074 52.428 64.687 52.2884 64.699 52.3083Z" fill="black"/>
<path d="M62.7394 50.8358C62.578 50.7084 62.4493 50.5442 62.3643 50.3569C62.1279 49.9239 61.9865 49.4455 61.9493 48.9535C61.9122 48.4616 61.9802 47.9673 62.1488 47.5037C62.2045 47.3056 62.3088 47.1246 62.4521 46.9769C62.2373 47.6072 62.1359 48.2706 62.1528 48.9363C62.2366 49.5987 62.4351 50.2415 62.7394 50.8358Z" fill="black"/>
<path d="M51.8657 61.6663C51.8241 61.61 51.788 61.5499 51.7579 61.4867C51.6775 61.3038 51.6238 61.1103 51.5983 60.9121C51.5628 60.5944 51.5913 60.2728 51.6821 59.9663C51.8049 59.562 52.0419 59.2017 52.3645 58.9288C52.7236 58.6095 53.2424 58.4699 53.5617 58.0868C53.7213 57.8827 53.8008 57.6272 53.7851 57.3685C53.763 57.0776 53.723 56.7885 53.6654 56.5025C53.6032 56.1838 53.6128 55.8553 53.6933 55.5408C53.7963 55.2159 53.9755 54.9203 54.2161 54.6788C54.7227 54.2096 55.2971 53.8195 55.9201 53.5216C56.5209 53.2389 57.0199 52.7776 57.3487 52.2007C57.5452 51.6113 57.6185 50.9879 57.5642 50.369C57.5537 49.8196 57.6544 49.2738 57.8601 48.7643C58.0658 48.2548 58.3724 47.7921 58.7614 47.404C59.3043 46.8995 60.0155 46.615 60.7567 46.6059C60.9561 46.6078 61.1545 46.6346 61.3473 46.6857C61.4162 46.7 61.4822 46.7256 61.5428 46.7615C61.28 46.71 61.0125 46.6859 60.7447 46.6897C60.0299 46.7255 59.3523 47.0189 58.8372 47.5157C58.4724 47.8951 58.1862 48.3428 57.9951 48.8332C57.804 49.3235 57.7118 49.8469 57.7238 50.373C57.7831 51.0201 57.707 51.6724 57.5003 52.2885C57.1574 52.9063 56.63 53.4016 55.9919 53.7051C55.3867 53.9941 54.8274 54.3706 54.3318 54.8225C54.1104 55.0305 53.9472 55.2927 53.8583 55.5832C53.7694 55.8736 53.758 56.1823 53.825 56.4786C53.8821 56.7724 53.9195 57.0697 53.9368 57.3685C53.9501 57.6708 53.8521 57.9675 53.6614 58.2025C53.2624 58.6335 52.7396 58.7532 52.4084 59.0445C52.0995 59.3012 51.8698 59.6402 51.7459 60.0222C51.6501 60.3127 51.6108 60.6188 51.6302 60.9241C51.6798 61.1798 51.7588 61.4288 51.8657 61.6663Z" fill="black"/>
<path d="M72.0856 52.5956C72.178 52.5572 72.277 52.5374 72.377 52.5374C72.4769 52.5374 72.576 52.5572 72.6683 52.5956C72.7597 52.6367 72.8392 52.7004 72.8993 52.7807C72.9593 52.8609 72.9979 52.9552 73.0115 53.0545C73.0224 53.1543 73.0021 53.2551 72.9536 53.343C72.905 53.4308 72.8304 53.5015 72.7401 53.5454C72.6492 53.5793 72.5515 53.5912 72.4551 53.5801C72.3587 53.569 72.2663 53.5352 72.1854 53.4815C72.1058 53.4413 72.0353 53.3851 71.9783 53.3164C71.9213 53.2478 71.8791 53.1681 71.8542 53.0825C71.8359 52.9922 71.8493 52.8984 71.8922 52.817C71.9351 52.7355 72.0049 52.6714 72.0896 52.6355" fill="#9B4E3D"/>
<path d="M71.8223 52.0849C71.8822 52.0849 72.0019 52.5797 72.4768 52.9309C72.7844 53.1193 73.1217 53.2542 73.4744 53.3299C73.4744 53.3579 73.3507 53.4018 73.1352 53.3938C72.847 53.3805 72.5692 53.2819 72.3371 53.1104C72.1096 52.9408 71.9374 52.7075 71.8423 52.44C71.7904 52.2245 71.7984 52.0889 71.8223 52.0849Z" fill="black"/>
<path d="M60.3454 61.287C58.7931 61.6861 57.9231 62.165 55.6086 64.675L49.4072 71.6386L57.9271 77.836L61.4149 73.0991L62.1571 83.4746C62.1571 83.4746 60.2257 85.845 58.5137 92.4415C57.129 97.7769 57.0013 103.216 56.6062 107.354L55.5567 133.409L79.8194 134.071C79.8194 134.071 78.9095 126.357 79.3445 109.92C79.5919 100.574 78.0795 91.2283 77.2614 88.6424L76.0124 81.8784C76.0065 80.6354 76.3766 79.4196 77.0739 78.3906C79.0412 75.6212 77.6405 72.3489 77.6405 72.3489L84.1172 74.7433L88.3911 65.102L79.552 61.7699C76.3596 60.449 72.5565 60.6406 72.5565 60.6406L65.8244 60.5608C65.8244 60.5608 62.6639 60.3173 60.3494 61.2831" fill="#F28F16"/>
<path d="M73.5622 163.242V162.652L67.1533 162.372V164.799L67.5524 164.827C69.3122 164.926 76.5032 165.226 77.6845 164.87C78.9774 164.479 73.5622 163.242 73.5622 163.242Z" fill="#F28F16"/>
<g opacity="0.5">
<path d="M69.4482 164.755C69.3608 164.218 69.0762 163.732 68.6501 163.394C68.2308 163.055 67.6993 162.887 67.1616 162.923V164.707L69.4482 164.755Z" fill="#F5F5F5"/>
</g>
<g opacity="0.5">
<path d="M76.2078 163.941C76.2078 163.941 78.1033 164.491 77.8679 164.807C77.6324 165.122 70.3456 165.09 67.1372 164.807V164.663L75.6291 164.767C75.6291 164.767 75.8367 163.953 76.2078 163.941Z" fill="#F5F5F5"/>
</g>
<path d="M67.0459 164.651H67.1576L67.4729 164.671L68.6302 164.727C69.6078 164.763 70.9646 164.798 72.4571 164.806C73.9496 164.814 75.3064 164.806 76.2841 164.759L77.4453 164.715H77.7606H77.8683H77.4453H76.2841C75.3064 164.735 73.9536 164.747 72.4571 164.743C70.9607 164.739 69.6118 164.707 68.6341 164.683L67.4729 164.655H67.1576L67.0459 164.651Z" fill="black"/>
<path d="M75.6373 164.858C75.6899 164.666 75.7635 164.48 75.8568 164.304C75.9743 164.144 76.108 163.997 76.2559 163.865C76.0584 163.937 75.8939 164.079 75.793 164.264C75.6687 164.436 75.6132 164.648 75.6373 164.858Z" fill="black"/>
<path d="M73.7578 163.881C73.7778 163.881 73.8696 163.781 73.9613 163.637C74.0531 163.494 74.117 163.362 74.097 163.35C74.0771 163.338 73.9893 163.45 73.8975 163.593C73.8295 163.677 73.7817 163.776 73.7578 163.881Z" fill="black"/>
<path d="M73.2429 163.621C73.2429 163.621 73.3587 163.569 73.4704 163.474C73.5821 163.378 73.658 163.282 73.642 163.266C73.626 163.25 73.5303 163.318 73.4185 163.414C73.3068 163.509 73.231 163.605 73.2429 163.621Z" fill="black"/>
<path d="M72.9199 163.019C73.026 163.057 73.1389 163.072 73.2511 163.063C73.4387 163.063 73.5863 163.063 73.5863 163.027C73.4803 162.989 73.3674 162.974 73.2551 162.983C73.1421 162.971 73.0278 162.983 72.9199 163.019Z" fill="black"/>
<path d="M72.8081 162.592C72.9174 162.666 73.047 162.705 73.1792 162.703C73.3144 162.728 73.454 162.71 73.5783 162.652C73.4541 162.633 73.3286 162.625 73.2032 162.628C73.0727 162.605 72.9406 162.593 72.8081 162.592Z" fill="black"/>
<path d="M73.9775 163.342C74.1096 163.364 74.2445 163.364 74.3766 163.342C74.5242 163.325 74.6699 163.295 74.8116 163.25C74.8988 163.224 74.9831 163.19 75.063 163.146C75.1113 163.117 75.148 163.072 75.1667 163.019C75.1727 162.988 75.1699 162.957 75.1586 162.928C75.1473 162.899 75.128 162.873 75.1029 162.855C74.9465 162.778 74.7682 162.758 74.5985 162.798C74.4288 162.838 74.2784 162.936 74.1731 163.075C74.1104 163.155 74.0643 163.247 74.0374 163.346C74.0374 163.414 74.0374 163.454 74.0374 163.458C74.0773 163.33 74.1409 163.211 74.225 163.106C74.3169 162.998 74.4393 162.921 74.5761 162.883C74.6553 162.855 74.7392 162.844 74.8228 162.85C74.9064 162.855 74.9881 162.877 75.063 162.915C75.1268 162.963 75.1029 163.043 75.031 163.083C74.9576 163.124 74.88 163.157 74.7996 163.182C74.6617 163.229 74.5202 163.265 74.3766 163.29C74.1332 163.33 73.9775 163.33 73.9775 163.342Z" fill="black"/>
<path d="M74.085 163.362C74.1326 163.276 74.1494 163.176 74.1329 163.079C74.1194 162.972 74.0811 162.869 74.0211 162.779C73.9882 162.717 73.9395 162.665 73.8799 162.628C73.8204 162.591 73.7521 162.57 73.6819 162.568C73.6612 162.572 73.6414 162.58 73.6237 162.591C73.606 162.603 73.5908 162.618 73.5789 162.635C73.5671 162.652 73.5588 162.672 73.5545 162.693C73.5503 162.713 73.5502 162.735 73.5542 162.755C73.5638 162.821 73.5869 162.883 73.6221 162.939C73.6749 163.03 73.7408 163.114 73.8176 163.186C73.8795 163.261 73.9591 163.318 74.0491 163.354C74.0491 163.354 73.9692 163.282 73.8575 163.15C73.7907 163.075 73.7331 162.992 73.6859 162.903C73.63 162.819 73.5901 162.664 73.6859 162.644C73.7817 162.624 73.8934 162.735 73.9573 162.819C74.0138 162.899 74.052 162.99 74.069 163.087C74.0813 163.178 74.0867 163.27 74.085 163.362Z" fill="black"/>
<path d="M67.1851 162.907C67.1851 162.907 67.3646 162.907 67.6559 162.927C68.0309 162.971 68.3862 163.119 68.6815 163.354C68.9743 163.593 69.1953 163.907 69.32 164.264C69.4158 164.535 69.4238 164.719 69.4397 164.719C69.4474 164.677 69.4474 164.633 69.4397 164.591C69.4291 164.473 69.4063 164.357 69.3719 164.244C69.258 163.869 69.0337 163.538 68.7282 163.293C68.4227 163.048 68.0504 162.901 67.6599 162.871C67.5432 162.858 67.4255 162.858 67.3088 162.871C67.2659 162.876 67.2241 162.889 67.1851 162.907Z" fill="black"/>
<path d="M70.2539 164.144C70.5589 164.212 70.8713 164.242 71.1837 164.232C71.4971 164.246 71.8111 164.219 72.1175 164.152C72.1175 164.132 71.6985 164.152 71.1837 164.152C70.6689 164.152 70.2539 164.12 70.2539 164.144Z" fill="black"/>
<path d="M69.0054 164.128C69.0054 164.128 69.0373 164.22 69.0812 164.316C69.1251 164.412 69.145 164.495 69.169 164.491C69.1929 164.487 69.2009 164.392 69.149 164.284C69.0971 164.176 69.0173 164.116 69.0054 164.128Z" fill="black"/>
<path d="M68.5342 163.541C68.5342 163.541 68.5621 163.621 68.626 163.689C68.6898 163.757 68.7577 163.801 68.7736 163.785C68.7896 163.769 68.7457 163.705 68.6818 163.637C68.618 163.569 68.5501 163.525 68.5342 163.541Z" fill="black"/>
<path d="M67.8637 163.27C67.8637 163.294 67.9515 163.294 68.0433 163.326C68.1351 163.358 68.2069 163.41 68.2229 163.394C68.2388 163.378 68.187 163.294 68.0712 163.254C67.9555 163.214 67.8557 163.25 67.8637 163.27Z" fill="black"/>
<path d="M67.3809 163.142C67.3809 163.162 67.4128 163.194 67.4647 163.218C67.5165 163.242 67.5644 163.238 67.5724 163.218C67.5804 163.198 67.5445 163.166 67.4926 163.146C67.4407 163.127 67.3888 163.123 67.3809 163.142Z" fill="black"/>
<path d="M58.5456 162.684L58.785 162.149L53.0545 159.268L52.0449 161.471L52.3961 161.658C53.9564 162.456 60.3772 165.693 61.6183 165.852C62.9751 166.02 58.5456 162.684 58.5456 162.684Z" fill="#F28F16"/>
<g opacity="0.5">
<path d="M54.1724 162.372C54.3133 161.836 54.2492 161.267 53.9929 160.776C53.7472 160.296 53.3296 159.927 52.8236 159.742L52.0894 161.363L54.1724 162.372Z" fill="#F5F5F5"/>
</g>
<g opacity="0.5">
<path d="M60.6725 164.396C60.6725 164.396 62.177 165.677 61.8298 165.864C61.4826 166.052 54.8543 163.047 52.0449 161.474L52.1128 161.351L59.8186 164.922C59.8186 164.922 60.3453 164.256 60.6725 164.396Z" fill="#F5F5F5"/>
</g>
<path d="M52.0249 161.295L52.1167 161.351L52.396 161.498L53.4336 162.021C54.3075 162.456 55.5286 163.043 56.8894 163.661C58.2502 164.28 59.4953 164.814 60.4011 165.186L61.4786 165.621L61.7699 165.736C61.8041 165.752 61.8404 165.763 61.8776 165.768L61.7779 165.72L61.4866 165.593L60.4211 165.138C59.5232 164.739 58.2821 164.212 56.9213 163.593C55.5606 162.975 54.3394 162.396 53.4575 161.973L52.412 161.486L52.1247 161.351L52.0249 161.295Z" fill="black"/>
<path d="M59.7749 165.002C59.902 164.853 60.0452 164.72 60.2019 164.603C60.3733 164.502 60.5553 164.42 60.7446 164.359C60.534 164.348 60.3262 164.412 60.158 164.539C59.978 164.641 59.8417 164.806 59.7749 165.002Z" fill="black"/>
<path d="M58.458 163.354C58.458 163.374 58.5936 163.31 58.7413 163.214C58.8889 163.119 58.9927 163.027 58.9807 163.011C58.9688 162.995 58.8451 163.055 58.6974 163.15C58.5497 163.246 58.446 163.338 58.458 163.354Z" fill="black"/>
<path d="M58.099 162.891C58.099 162.915 58.2267 162.891 58.3664 162.847C58.5061 162.803 58.6138 162.751 58.6098 162.731C58.6058 162.711 58.4821 162.731 58.3425 162.775C58.2028 162.819 58.0911 162.871 58.099 162.891Z" fill="black"/>
<path d="M58.0508 162.209C58.0508 162.229 58.1705 162.309 58.3341 162.384C58.4308 162.444 58.5401 162.481 58.6534 162.492C58.6534 162.492 58.5336 162.392 58.37 162.316C58.2733 162.256 58.1641 162.22 58.0508 162.209Z" fill="black"/>
<path d="M58.1226 161.778C58.1948 161.888 58.2973 161.975 58.4179 162.029C58.526 162.103 58.6541 162.142 58.785 162.141C58.785 162.117 58.6334 162.061 58.4538 161.961C58.3499 161.889 58.239 161.827 58.1226 161.778Z" fill="black"/>
<path d="M58.8848 162.939C58.9978 163.015 59.1235 163.071 59.256 163.103C59.3989 163.149 59.5459 163.181 59.6949 163.198C59.7852 163.207 59.876 163.207 59.9663 163.198C60.0222 163.193 60.0738 163.166 60.11 163.123C60.1263 163.097 60.135 163.067 60.135 163.037C60.135 163.006 60.1263 162.977 60.11 162.951C59.9998 162.816 59.8456 162.723 59.6743 162.689C59.5029 162.656 59.3253 162.684 59.1722 162.767C59.0809 162.814 59.0007 162.879 58.9367 162.959C58.9109 162.986 58.8917 163.019 58.8809 163.055C58.9716 162.958 59.0782 162.877 59.1961 162.815C59.3207 162.758 59.4588 162.736 59.5952 162.752C59.6789 162.759 59.7601 162.784 59.8342 162.823C59.9082 162.863 59.9735 162.917 60.0262 162.983C60.0661 163.055 60.0262 163.115 59.9264 163.123C59.8441 163.131 59.7613 163.131 59.679 163.123C59.5335 163.109 59.3894 163.084 59.248 163.047C59.0325 162.991 58.8888 162.927 58.8848 162.939Z" fill="black"/>
<path d="M58.9729 162.999C58.9729 162.999 59.0727 162.935 59.1325 162.759C59.1596 162.655 59.1596 162.545 59.1325 162.44C59.1277 162.37 59.1045 162.303 59.0652 162.245C59.026 162.186 58.9721 162.14 58.909 162.109C58.8173 162.081 58.6058 162.265 58.5898 162.336C58.5738 162.408 58.6975 162.368 58.7055 162.424C58.7158 162.529 58.74 162.633 58.7774 162.731C58.8041 162.825 58.855 162.911 58.925 162.979C58.925 162.979 58.8771 162.879 58.8292 162.715C58.8023 162.619 58.7836 162.52 58.7734 162.42C58.7734 162.316 58.7734 162.161 58.8891 162.185C59.0048 162.209 59.0407 162.356 59.0647 162.456C59.0849 162.551 59.0849 162.649 59.0647 162.743C59.0422 162.831 59.0115 162.917 58.9729 162.999Z" fill="black"/>
<path d="M52.8633 159.758C52.8633 159.758 53.0349 159.818 53.2863 159.966C53.6073 160.158 53.8695 160.434 54.0445 160.764C54.2166 161.1 54.2899 161.478 54.256 161.854C54.2321 162.145 54.1642 162.316 54.1802 162.32C54.2032 162.283 54.2206 162.243 54.232 162.201C54.2706 162.091 54.2974 161.977 54.3119 161.862C54.3593 161.473 54.2913 161.079 54.1163 160.728C53.9387 160.38 53.6607 160.094 53.3182 159.906C53.2168 159.849 53.1098 159.802 52.999 159.766C52.9543 159.758 52.9087 159.755 52.8633 159.758Z" fill="black"/>
<path d="M55.1577 162.145C55.4027 162.333 55.671 162.488 55.9558 162.608C56.2346 162.75 56.5312 162.853 56.8377 162.915C56.8377 162.895 56.4387 162.747 55.9878 162.536C55.5368 162.324 55.1577 162.125 55.1577 162.145Z" fill="black"/>
<path d="M54.0206 161.618C54.0006 161.618 54.0206 161.714 54.0206 161.818C54.0206 161.921 54.0206 162.009 54.0206 162.017C54.0206 162.025 54.0924 161.941 54.0924 161.818C54.0924 161.694 54.0405 161.61 54.0206 161.618Z" fill="black"/>
<path d="M53.8369 160.892C53.8169 160.892 53.8369 160.976 53.8568 161.063C53.8768 161.151 53.9326 161.219 53.9526 161.211C53.9726 161.203 53.9526 161.127 53.9287 161.035C53.9047 160.944 53.8568 160.884 53.8369 160.892Z" fill="black"/>
<path d="M53.334 160.369C53.334 160.389 53.4058 160.425 53.4776 160.493C53.5495 160.561 53.5894 160.636 53.6093 160.628C53.6293 160.62 53.6093 160.521 53.5295 160.437C53.4497 160.353 53.334 160.349 53.334 160.369Z" fill="black"/>
<path d="M52.9468 160.054C52.9468 160.054 52.9468 160.114 52.9909 160.158C53.0351 160.202 53.0752 160.218 53.0913 160.202C53.1074 160.186 53.0913 160.142 53.0471 160.102C53.003 160.062 52.9628 160.042 52.9468 160.054Z" fill="black"/>
<path d="M92.0226 67.7557C91.6766 67.5279 91.3717 67.2432 91.1207 66.9137C90.82 66.6295 90.5679 66.2978 90.3745 65.932C90.7186 66.1622 91.0232 66.4465 91.2764 66.774C91.5781 67.0573 91.8304 67.3891 92.0226 67.7557Z" fill="#9B4E3D"/>
<path d="M82.2215 62.8116C82.1385 62.8266 82.0543 62.8333 81.9701 62.8315L81.2518 62.8515L78.614 62.8834L69.8986 62.9153L61.1872 62.8834L58.5454 62.8515L57.8271 62.8315C57.7428 62.8333 57.6586 62.8266 57.5757 62.8116C57.6591 62.8006 57.7436 62.8006 57.8271 62.8116L58.5454 62.7916L61.1872 62.7557L69.8986 62.7278L78.614 62.7557L81.2518 62.7916L81.9701 62.8116C82.0535 62.8006 82.138 62.8006 82.2215 62.8116Z" fill="black"/>
<path d="M87.6645 66.6543C87.5502 66.6628 87.4355 66.6628 87.3213 66.6543L86.3356 66.6742L82.7162 66.7062L70.7764 66.7381L58.8286 66.7062L55.2092 66.6742L54.2275 66.6543C54.1132 66.663 53.9985 66.663 53.8843 66.6543C53.9977 66.6363 54.1127 66.6296 54.2275 66.6343L55.2092 66.6144L58.8286 66.5785L70.7764 66.5505L82.7162 66.5785L86.3356 66.6144L87.3213 66.6343C87.4361 66.6299 87.551 66.6366 87.6645 66.6543Z" fill="black"/>
<path d="M84.9994 71.2555C84.8817 71.2709 84.763 71.2776 84.6443 71.2754L83.6227 71.2954L79.8675 71.3273L67.4768 71.3592L55.0821 71.3273L51.3269 71.2994L50.3054 71.2794C50.1866 71.2813 50.068 71.2746 49.9502 71.2595C50.0683 71.2484 50.1872 71.2484 50.3054 71.2595L51.3269 71.2395L55.0821 71.2036L67.4768 71.1757L79.8675 71.2036L83.6227 71.2395L84.6443 71.2595C84.7622 71.2468 84.8812 71.2454 84.9994 71.2555Z" fill="black"/>
<path d="M77.816 75.9765C77.6048 76.0089 77.3911 76.0223 77.1775 76.0164L75.4376 76.0483C73.9691 76.0483 71.9419 76.0802 69.7032 76.0802C67.4645 76.0802 65.4333 76.0802 63.9687 76.0483L62.2288 76.0164C62.0152 76.0223 61.8015 76.0089 61.5903 75.9765C61.8015 75.944 62.0152 75.9306 62.2288 75.9366L63.9687 75.9046C65.4333 75.9046 67.4645 75.8727 69.7032 75.8727C71.9419 75.8727 73.9691 75.8727 75.4376 75.9046L77.1775 75.9366C77.3911 75.9306 77.6048 75.944 77.816 75.9765Z" fill="black"/>
<path d="M76.1323 80.5974C75.9493 80.63 75.7634 80.6434 75.5776 80.6373L74.0611 80.6693C72.7842 80.6892 71.0163 80.7012 69.065 80.7012C67.1136 80.7012 65.3417 80.7012 64.0648 80.6693L62.5483 80.6373C62.3626 80.6434 62.1767 80.63 61.9937 80.5974C62.1767 80.5648 62.3626 80.5515 62.5483 80.5575L64.0648 80.5256C65.3417 80.5057 67.1096 80.4937 69.065 80.4937C71.0203 80.4937 72.7842 80.4937 74.0611 80.5256L75.5776 80.5575C75.7634 80.5515 75.9493 80.5648 76.1323 80.5974Z" fill="black"/>
<path d="M77.0223 78.4146C76.8245 78.4472 76.624 78.4606 76.4237 78.4545L74.7995 78.4904C73.4268 78.4904 71.5312 78.5184 69.4362 78.5184C67.3411 78.5184 65.4456 78.5184 64.0689 78.4904L62.4447 78.4545C62.2457 78.4605 62.0465 78.4471 61.8501 78.4146C62.0468 78.3847 62.2457 78.3713 62.4447 78.3747L64.0689 78.3428C65.4416 78.3228 67.3411 78.3109 69.4362 78.3109C71.5312 78.3109 73.4268 78.3108 74.7995 78.3428L76.4237 78.3747C76.624 78.3713 76.8242 78.3846 77.0223 78.4146Z" fill="black"/>
<path d="M77.9996 73.6937C77.7841 73.7237 77.5666 73.737 77.3491 73.7336L75.5773 73.7655C74.0769 73.7855 72.0097 73.7975 69.7271 73.7975C67.4445 73.7975 65.3694 73.7975 63.873 73.7655L62.1011 73.7336C61.8836 73.737 61.6662 73.7237 61.4507 73.6937C61.6659 73.6612 61.8836 73.6478 62.1011 73.6538L63.873 73.6179C65.3694 73.6179 67.4405 73.59 69.7271 73.59C72.0137 73.59 74.0769 73.59 75.5773 73.6179L77.3491 73.6538C77.5667 73.6478 77.7844 73.6612 77.9996 73.6937Z" fill="black"/>
<path d="M60.9838 73.6699C60.5571 73.7324 60.1259 73.7578 59.6948 73.7457C58.8967 73.7656 57.7993 73.7736 56.5822 73.7736C55.3651 73.7736 54.2676 73.7736 53.4735 73.7457C53.0425 73.7578 52.6112 73.7324 52.1846 73.6699C52.6117 73.6127 53.0427 73.5887 53.4735 73.598C54.2716 73.598 55.3691 73.5661 56.5822 73.5661C57.7953 73.5661 58.9007 73.5661 59.6948 73.598C60.1257 73.5887 60.5566 73.6127 60.9838 73.6699Z" fill="black"/>
<path d="M84.7233 73.4223C83.2754 73.5607 81.8176 73.5607 80.3696 73.4223C81.8176 73.284 83.2754 73.284 84.7233 73.4223Z" fill="black"/>
<path d="M86.348 68.8692C86.2313 68.8819 86.1141 68.8885 85.9968 68.8892H84.9912L81.2959 68.9211L69.1007 68.953L56.9055 68.9211L53.2102 68.8892H52.2046C52.0886 68.8885 51.9727 68.8818 51.8574 68.8692C51.9722 68.851 52.0884 68.843 52.2046 68.8453H53.2102L56.9055 68.8133L69.1007 68.7854L81.2959 68.8133L84.9912 68.8453H85.9968C86.1143 68.8429 86.2318 68.8509 86.348 68.8692Z" fill="black"/>
<path d="M87.0147 64.5753C86.9084 64.5837 86.8017 64.5837 86.6954 64.5753L85.7816 64.5952L82.4175 64.6271L71.3238 64.6591L60.226 64.6271L56.8659 64.5952L55.9481 64.5753C55.8432 64.5839 55.7377 64.5839 55.6328 64.5753C55.7369 64.5574 55.8426 64.5507 55.9481 64.5553H56.8659L60.226 64.5194L71.3238 64.4915L82.4175 64.5194L85.7816 64.5553H86.6954C86.8023 64.5509 86.9092 64.5576 87.0147 64.5753Z" fill="black"/>
<path d="M25.2485 36.0031C25.2485 36.0031 25.2286 35.9193 25.2046 35.7477C25.1807 35.5761 25.1487 35.3167 25.1009 34.9855C25.1009 34.8219 25.045 34.6343 25.037 34.4268C25.029 34.2193 25.037 33.9919 25.037 33.7444C25.037 33.497 25.0131 33.2297 25.037 32.9463C25.061 32.663 25.0809 32.3637 25.1048 32.0445C25.4419 28.3902 27.1534 25 29.8935 22.5589L30.548 21.9842C30.7834 21.8047 31.0269 21.637 31.2703 21.4615C33.4219 19.9686 35.9248 19.061 38.5331 18.8277C38.8803 18.7878 39.2355 18.8037 39.5866 18.7878H40.1214C40.301 18.7878 40.4805 18.8157 40.6601 18.8277C42.1417 18.9118 43.6006 19.231 44.9819 19.7734C47.9798 20.9193 50.5216 23.0127 52.2208 25.7354C54.0257 28.6758 54.7627 32.1481 54.3079 35.5681C54.2759 35.7916 54.236 36.0151 54.1961 36.2386V36.1587L58.893 42.6873L59.0327 42.8869L58.7933 42.8469L51.8058 41.7695L51.9016 41.7256C49.8767 44.7546 46.7945 46.919 43.258 47.7953C42.7229 47.9319 42.1788 48.0305 41.6298 48.0906L40.8317 48.1863C40.5643 48.2183 40.297 48.1863 40.0336 48.2143C38.041 48.263 36.0595 47.9031 34.2113 47.1568C32.6319 46.5142 31.1743 45.6058 29.9015 44.4711L29.0795 43.673L28.3771 42.8749C28.1571 42.6229 27.9544 42.3562 27.7705 42.0768C27.587 41.8054 27.3715 41.562 27.2398 41.2986C26.7006 40.4158 26.2539 39.4797 25.907 38.5052L25.5598 37.4437C25.4919 37.1285 25.4361 36.8651 25.3882 36.6456L25.2884 36.1587C25.2685 36.051 25.2605 35.9911 25.2605 35.9911L25.3044 36.1548L25.4241 36.6376C25.472 36.8531 25.5358 37.1165 25.6077 37.4357L25.9668 38.4853C26.3226 39.4468 26.7759 40.3695 27.3196 41.2387C27.4673 41.5021 27.6708 41.7416 27.8504 42.0089C28.0377 42.2869 28.2416 42.5535 28.4609 42.807L29.1633 43.6052L29.9614 44.3713C31.2295 45.489 32.6789 46.3824 34.2473 47.0131C36.0782 47.7437 38.0391 48.0927 40.0096 48.0387C40.273 48.0387 40.5364 48.0387 40.8078 48.0107L41.6059 47.911C42.1447 47.8513 42.6783 47.7512 43.2021 47.6117C44.3097 47.3397 45.3812 46.9378 46.3946 46.4145C48.5473 45.286 50.3862 43.6405 51.7459 41.6258L51.7818 41.574H51.8457L58.7813 42.6474L58.6815 42.807L53.9607 36.2665L53.9328 36.2306V36.1867C53.9727 35.9685 54.0086 35.749 54.0405 35.5282C54.4945 32.1561 53.77 28.7306 51.9893 25.8311C50.3141 23.1438 47.8095 21.0748 44.8542 19.9371C43.4905 19.4016 42.0508 19.0851 40.5883 18.9993C40.4087 18.9993 40.2331 18.9634 40.0575 18.9594H39.5308C39.1796 18.9594 38.8284 18.9594 38.4852 18.9953C37.8138 19.0554 37.1472 19.1607 36.49 19.3105C35.2291 19.5848 34.0105 20.0264 32.8665 20.6234C32.3293 20.908 31.8108 21.2265 31.3142 21.5772C31.0747 21.7528 30.8313 21.9164 30.5999 22.096L29.9494 22.6626C28.4161 24.0257 27.1916 25.7005 26.3579 27.575C25.7248 28.9921 25.3208 30.5007 25.1607 32.0445C25.1328 32.3597 25.1088 32.659 25.0849 32.9423C25.061 33.2257 25.0849 33.4891 25.0849 33.7405C25.0849 33.9919 25.0849 34.2113 25.0849 34.4189C25.0849 34.6264 25.1248 34.8179 25.1408 34.9775C25.1767 35.3088 25.2046 35.5602 25.2246 35.7397C25.2445 35.9193 25.2485 36.0031 25.2485 36.0031Z" fill="black"/>
<path d="M34.9057 27.902L33.1538 41.1747H46.1272L44.2396 27.902H34.9057Z" fill="black"/>
<path d="M43.1863 29.8296C43.189 29.9664 43.1632 30.1023 43.1104 30.2286C43.0005 30.567 42.8433 30.8881 42.6435 31.1824C42.3465 31.6274 41.9504 31.9976 41.4863 32.2638C40.9114 32.582 40.2638 32.7456 39.6067 32.7387C38.9509 32.7559 38.3014 32.6062 37.7192 32.3037C37.2482 32.0459 36.8533 31.6688 36.5739 31.2103C36.3833 30.9082 36.2406 30.5784 36.1509 30.2326C36.1044 30.1051 36.0867 29.9688 36.099 29.8336C36.2401 30.2848 36.4401 30.7155 36.6936 31.1146C36.9764 31.5372 37.3588 31.8839 37.807 32.1242C38.3642 32.4012 38.9806 32.5382 39.6027 32.5232C40.2271 32.532 40.8436 32.3823 41.3945 32.0883C41.8398 31.8429 42.2255 31.5023 42.5238 31.0906C42.7903 30.6959 43.0125 30.273 43.1863 29.8296Z" fill="#F5F5F5"/>
</svg>
