<svg width="12" height="17" viewBox="0 0 12 17" fill="none" xmlns="http://www.w3.org/2000/svg">
<path d="M6 11.7241C5.04553 11.7232 4.13043 11.3523 3.45551 10.6929C2.78059 10.0335 2.40099 9.13943 2.4 8.2069V3.51724C2.4 2.58441 2.77928 1.68979 3.45441 1.03018C4.12955 0.370565 5.04522 0 6 0C6.95478 0 7.87045 0.370565 8.54558 1.03018C9.22072 1.68979 9.6 2.58441 9.6 3.51724V8.2069C9.59901 9.13943 9.2194 10.0335 8.54449 10.6929C7.86957 11.3523 6.95447 11.7232 6 11.7241ZM8.4 3.51724C8.4 2.89535 8.14714 2.29894 7.69706 1.8592C7.24697 1.41946 6.63652 1.17241 6 1.17241C5.36348 1.17241 4.75303 1.41946 4.30294 1.8592C3.85286 2.29894 3.6 2.89535 3.6 3.51724V8.2069C3.6 8.82878 3.85286 9.4252 4.30294 9.86494C4.75303 10.3047 5.36348 10.5517 6 10.5517C6.63652 10.5517 7.24697 10.3047 7.69706 9.86494C8.14714 9.4252 8.4 8.82878 8.4 8.2069V3.51724ZM5.4 14.0397V16.4138C5.4 16.5693 5.46321 16.7184 5.57574 16.8283C5.68826 16.9382 5.84087 17 6 17C6.15913 17 6.31174 16.9382 6.42426 16.8283C6.53679 16.7184 6.6 16.5693 6.6 16.4138V14.0397C8.07927 13.8926 9.45018 13.2148 10.4476 12.1375C11.4451 11.0601 11.9982 9.65962 12 8.2069C12 8.05142 11.9368 7.90232 11.8243 7.79239C11.7117 7.68245 11.5591 7.62069 11.4 7.62069C11.2409 7.62069 11.0883 7.68245 10.9757 7.79239C10.8632 7.90232 10.8 8.05142 10.8 8.2069C10.8 9.45067 10.2943 10.6435 9.39411 11.523C8.49394 12.4025 7.27304 12.8966 6 12.8966C4.72696 12.8966 3.50606 12.4025 2.60589 11.523C1.70571 10.6435 1.2 9.45067 1.2 8.2069C1.2 8.05142 1.13679 7.90232 1.02426 7.79239C0.911742 7.68245 0.75913 7.62069 0.599999 7.62069C0.440869 7.62069 0.288257 7.68245 0.175735 7.79239C0.0632133 7.90232 0 8.05142 0 8.2069C0.00182629 9.65962 0.554941 11.0601 1.55238 12.1375C2.54982 13.2148 3.92073 13.8926 5.4 14.0397Z" fill="black" fill-opacity="0.7"/>
</svg>
