<svg width="25" height="23" viewBox="0 0 25 23" fill="none" xmlns="http://www.w3.org/2000/svg">
<path d="M11.9528 11.6356H4.34986M4.13436 12.6322L2.87826 16.3844C2.1903 18.4394 1.84632 19.4669 2.09317 20.0996C2.30754 20.6492 2.76795 21.0657 3.33609 21.2244C3.9903 21.4069 4.97843 20.9622 6.95467 20.073L19.6242 14.3717C21.5532 13.5036 22.5177 13.0696 22.8157 12.4667C23.0748 11.9429 23.0748 11.3282 22.8157 10.8044C22.5177 10.2015 21.5532 9.76748 19.6242 8.89943L6.93282 3.18833C4.96252 2.30171 3.97739 1.85839 3.32382 2.04025C2.75623 2.19819 2.29586 2.61367 2.08075 3.16215C1.83304 3.79372 2.17334 4.81901 2.85396 6.86958L4.1368 10.7346C4.25369 11.0868 4.31214 11.2629 4.33521 11.4429C4.35569 11.6028 4.35547 11.7646 4.3346 11.9244C4.31106 12.1044 4.25216 12.2803 4.13436 12.6322Z" stroke="black" stroke-opacity="0.4" stroke-width="3" stroke-linecap="round" stroke-linejoin="round"/>
</svg>
