<svg width="63" height="60" viewBox="0 0 63 60" fill="none" xmlns="http://www.w3.org/2000/svg">
<g filter="url(#filter0_d_175_3398)">
<path d="M34.7657 -0.000215834L29.3599 5.41211L34.7657 10.8244L40.1715 5.41211L34.7657 -0.000215834Z" fill="#FFA500"/>
<path d="M57.8374 13.2254L42.5679 28.5126L42.5579 28.5214H27.289L27.1183 28.3523L19.6085 20.8418L11.8034 28.6557L4 20.8418L11.8034 13.0278L19.4567 5.36646L34.7716 20.6986L50.034 5.41082L57.8374 13.2254Z" fill="#FFA500"/>
<path d="M12.0503 44.0696L11.7106 43.2859C11.3951 42.5365 11.238 41.8806 11.238 41.3187C11.238 40.9342 11.3709 40.4876 11.6368 39.9802C11.9026 39.4727 12.3486 39.0906 12.9743 38.8339C13.5993 38.5778 14.001 38.4098 14.1782 38.3311L16.025 37.5764L19.2015 46.4964H16.6305L14.7099 40.8609C14.3058 40.8609 14.0205 41.0436 13.8533 41.408C13.8137 41.4872 13.7942 41.5854 13.7942 41.7037C13.7942 41.9013 13.858 42.1526 13.9862 42.4584L15.641 46.4964H7.47071C6.42683 46.4668 5.58913 46.1167 4.95937 45.446C4.52575 45.0118 4.28177 44.5931 4.22801 44.1885C4.17366 43.7845 4.14648 42.5714 4.14648 40.5498L6.56979 39.7808V43.1682C6.6779 43.7206 6.9981 44.0211 7.53037 44.0708H12.0503V44.0696Z" fill="#FFA500"/>
<path d="M8.4157 51.1538L6.61328 49.364L8.4157 47.5447L10.2033 49.364L8.4157 51.1538Z" fill="#FFA500"/>
<path d="M11.5925 51.1538L9.79004 49.364L11.5925 47.5447L13.3801 49.364L11.5925 51.1538Z" fill="#FFA500"/>
<path d="M25.9235 44.07L24.6824 46.4814L23.7224 46.4962C23.0719 46.4962 22.4735 46.3406 21.927 46.0301C21.3806 45.7196 20.9369 45.2807 20.5972 44.7135C20.2575 44.1463 20.0874 43.4637 20.0874 42.6646C20.0874 41.9052 20.2575 41.2445 20.5972 40.6826C20.9369 40.1207 21.3806 39.6818 21.927 39.366C22.4735 39.0502 23.0719 38.8928 23.7224 38.8928H28.3321V47.1468C28.3321 48.0145 28.0314 48.7391 27.4312 49.3217C26.8599 49.9031 26.1752 50.2089 25.3777 50.2385H21.7138L20.6646 47.8276H25.2743C25.4025 47.8276 25.4958 47.8128 25.5549 47.7832C25.614 47.7537 25.6731 47.704 25.7321 47.6354C25.8698 47.497 25.9389 47.3343 25.9389 47.1474L25.9235 44.07ZM25.9235 44.07V41.3185H23.7224C23.3579 41.3185 23.0625 41.4421 22.8356 41.6881C22.6088 41.9348 22.4959 42.2601 22.4959 42.6646C22.4959 43.0988 22.6088 43.4412 22.8356 43.6926C23.0619 43.944 23.3579 44.07 23.7224 44.07H25.9235Z" fill="#FFA500"/>
<path d="M58.1604 36.7476L56.3727 34.9282L54.5703 36.7476L56.3727 38.567L58.1604 36.7476Z" fill="#FFA500"/>
<path d="M55.4274 43.4193C55.4274 43.6068 55.363 43.7647 55.2354 43.8924C55.1072 44.0107 54.9494 44.0699 54.7627 44.0699H52.9603H52.5468H46.6965H46.2085H40.432H39.9447H34.0341H33.6796H32.5867C32.3994 44.0699 32.2417 44.0013 32.1141 43.8629C31.996 43.7446 31.9369 43.5967 31.9369 43.4193L31.9073 34.0557L29.5142 34.9577V43.4187C29.5142 44.2769 29.8143 45.0038 30.4151 45.6006C31.0159 46.1974 31.7396 46.4955 32.5873 46.4955H33.6802H34.0347H39.9441H40.4314H46.2079H46.6959H52.5462H52.9597H54.7622C55.6093 46.4955 56.3283 46.195 56.919 45.5929C57.5198 45.0015 57.8199 44.2763 57.8199 43.4187V38.8182L55.4268 39.7208L55.4274 43.4193Z" fill="#FFA500"/>
<path d="M33.3198 50.8476H33.3641C33.4238 50.8476 33.4717 50.8399 33.5077 50.8251C33.5449 50.8103 33.5745 50.7855 33.5999 50.7506C33.6247 50.7157 33.6436 50.6719 33.6566 50.6187C33.6702 50.5654 33.6855 50.4992 33.7015 50.4199L34.2332 47.6702H35.1666L34.6603 50.2165C34.6107 50.4347 34.5616 50.6388 34.5138 50.8274C34.4653 51.0167 34.3998 51.1829 34.3153 51.3249C34.2302 51.4674 34.1203 51.5786 33.9844 51.6579C33.8616 51.7342 33.7044 51.7756 33.5124 51.7821H32.5737L32.494 51.3698L31.9132 48.6047H31.8689C31.8087 48.6047 31.7608 48.6124 31.7248 48.6272C31.6887 48.642 31.658 48.6668 31.6326 48.7017C31.6084 48.7372 31.5889 48.781 31.5759 48.8336C31.5629 48.8868 31.5481 48.9531 31.5316 49.0329L30.9999 51.7821H30.0659L30.5728 49.2364C30.6224 49.0175 30.6714 48.8135 30.7193 48.6248C30.7672 48.4361 30.8333 48.2699 30.9178 48.1274C31.0023 47.9848 31.1122 47.8719 31.248 47.7896C31.3709 47.7163 31.5281 47.6773 31.7201 47.6702H32.6582L32.7379 48.0824L33.3198 50.8476Z" fill="#FFA500"/>
<path d="M38.4794 50.1266L38.161 51.8318H37.2471L37.8827 48.6651C37.9229 48.4693 37.9702 48.3084 38.0269 48.183C38.0836 48.0576 38.1521 47.9559 38.2336 47.8796C38.3146 47.8033 38.4132 47.7501 38.529 47.7199C38.6442 47.6897 38.7807 47.6755 38.9361 47.6755H40.0733L40.9322 51.8318H40.0136L39.785 50.6435H38.7021L38.4794 50.1266ZM39.3833 48.3859H39.2492C39.1428 48.3859 39.0572 48.39 38.9904 48.3983C38.9248 48.4072 38.8717 48.4255 38.8315 48.4557C38.7913 48.4859 38.763 48.5284 38.7447 48.5852C38.7263 48.642 38.7086 48.7195 38.6927 48.8194L38.5184 49.9279H39.6408L39.3833 48.3859Z" fill="#FFA500"/>
<path d="M46.3805 47.7048L46.8915 50.7976H46.9465C46.9931 50.7976 47.0209 50.7775 47.0315 50.7372L47.6028 47.7042H48.5811L47.9106 51.0306C47.8734 51.2033 47.8356 51.3405 47.7966 51.4435C47.7564 51.5464 47.7068 51.6274 47.6471 51.6871C47.5875 51.7469 47.516 51.7853 47.4339 51.8037C47.3511 51.8214 47.2513 51.8309 47.1355 51.8309H46.3209L45.8045 49.161H45.7496L45.4123 51.03C45.3756 51.2027 45.3367 51.34 45.2959 51.4429C45.2545 51.5458 45.2043 51.6268 45.1441 51.6866C45.0844 51.7463 45.0135 51.7847 44.9308 51.8031C44.8475 51.8208 44.7483 51.8303 44.6331 51.8303H43.8574L43.0132 47.703H43.9968L44.5775 50.7958H44.6372C44.6833 50.7958 44.7122 50.7757 44.7217 50.7355L45.1937 47.7024H46.3805V47.7048Z" fill="#FFA500"/>
<path d="M52.7676 51.7867H51.8886V50.3051L50.6816 47.6748H51.6706L52.3163 49.4102L52.9815 47.6748H53.9704L52.7682 50.2903V51.7867H52.7676Z" fill="#FFA500"/>
<path d="M33.3198 50.8476H33.3641C33.4238 50.8476 33.4717 50.8399 33.5077 50.8251C33.5449 50.8103 33.5745 50.7855 33.5999 50.7506C33.6247 50.7157 33.6436 50.6719 33.6566 50.6187C33.6702 50.5654 33.6855 50.4992 33.7015 50.4199L34.2332 47.6702H35.1666L34.6603 50.2165C34.6107 50.4347 34.5616 50.6388 34.5138 50.8274C34.4653 51.0167 34.3998 51.1829 34.3153 51.3249C34.2302 51.4674 34.1203 51.5786 33.9844 51.6579C33.8616 51.7342 33.7044 51.7756 33.5124 51.7821H32.5737L32.494 51.3698L31.9132 48.6047H31.8689C31.8087 48.6047 31.7608 48.6124 31.7248 48.6272C31.6887 48.642 31.658 48.6668 31.6326 48.7017C31.6084 48.7372 31.5889 48.781 31.5759 48.8336C31.5629 48.8868 31.5481 48.9531 31.5316 49.0329L30.9999 51.7821H30.0659L30.5728 49.2364C30.6224 49.0175 30.6714 48.8135 30.7193 48.6248C30.7672 48.4361 30.8333 48.2699 30.9178 48.1274C31.0023 47.9848 31.1122 47.8719 31.248 47.7896C31.3709 47.7163 31.5281 47.6773 31.7201 47.6702H32.6582L32.7379 48.0824L33.3198 50.8476Z" fill="#FFA500"/>
<path d="M38.4794 50.1266L38.161 51.8318H37.2471L37.8827 48.6651C37.9229 48.4693 37.9702 48.3084 38.0269 48.183C38.0836 48.0576 38.1521 47.9559 38.2336 47.8796C38.3146 47.8033 38.4132 47.7501 38.529 47.7199C38.6442 47.6897 38.7807 47.6755 38.9361 47.6755H40.0733L40.9322 51.8318H40.0136L39.785 50.6435H38.7021L38.4794 50.1266ZM39.3833 48.3859H39.2492C39.1428 48.3859 39.0572 48.39 38.9904 48.3983C38.9248 48.4072 38.8717 48.4255 38.8315 48.4557C38.7913 48.4859 38.763 48.5284 38.7447 48.5852C38.7263 48.642 38.7086 48.7195 38.6927 48.8194L38.5184 49.9279H39.6408L39.3833 48.3859Z" fill="#FFA500"/>
<path d="M46.3805 47.7048L46.8915 50.7976H46.9465C46.9931 50.7976 47.0209 50.7775 47.0315 50.7372L47.6028 47.7042H48.5811L47.9106 51.0306C47.8734 51.2033 47.8356 51.3405 47.7966 51.4435C47.7564 51.5464 47.7068 51.6274 47.6471 51.6871C47.5875 51.7469 47.516 51.7853 47.4339 51.8037C47.3511 51.8214 47.2513 51.8309 47.1355 51.8309H46.3209L45.8045 49.161H45.7496L45.4123 51.03C45.3756 51.2027 45.3367 51.34 45.2959 51.4429C45.2545 51.5458 45.2043 51.6268 45.1441 51.6866C45.0844 51.7463 45.0135 51.7847 44.9308 51.8031C44.8475 51.8208 44.7483 51.8303 44.6331 51.8303H43.8574L43.0132 47.703H43.9968L44.5775 50.7958H44.6372C44.6833 50.7958 44.7122 50.7757 44.7217 50.7355L45.1937 47.7024H46.3805V47.7048Z" fill="#FFA500"/>
<path d="M52.7676 51.7867H51.8886V50.3051L50.6816 47.6748H51.6706L52.3163 49.4102L52.9815 47.6748H53.9704L52.7682 50.2903V51.7867H52.7676Z" fill="#FFA500"/>
<path d="M33.3198 50.8476H33.3641C33.4238 50.8476 33.4717 50.8399 33.5077 50.8251C33.5449 50.8103 33.5745 50.7855 33.5999 50.7506C33.6247 50.7157 33.6436 50.6719 33.6566 50.6187C33.6702 50.5654 33.6855 50.4992 33.7015 50.4199L34.2332 47.6702H35.1666L34.6603 50.2165C34.6107 50.4347 34.5616 50.6388 34.5138 50.8274C34.4653 51.0167 34.3998 51.1829 34.3153 51.3249C34.2302 51.4674 34.1203 51.5786 33.9844 51.6579C33.8616 51.7342 33.7044 51.7756 33.5124 51.7821H32.5737L32.494 51.3698L31.9132 48.6047H31.8689C31.8087 48.6047 31.7608 48.6124 31.7248 48.6272C31.6887 48.642 31.658 48.6668 31.6326 48.7017C31.6084 48.7372 31.5889 48.781 31.5759 48.8336C31.5629 48.8868 31.5481 48.9531 31.5316 49.0329L30.9999 51.7821H30.0659L30.5728 49.2364C30.6224 49.0175 30.6714 48.8135 30.7193 48.6248C30.7672 48.4361 30.8333 48.2699 30.9178 48.1274C31.0023 47.9848 31.1122 47.8719 31.248 47.7896C31.3709 47.7163 31.5281 47.6773 31.7201 47.6702H32.6582L32.7379 48.0824L33.3198 50.8476Z" fill="#FFA500"/>
<path d="M38.4794 50.1266L38.161 51.8318H37.2471L37.8827 48.6651C37.9229 48.4693 37.9702 48.3084 38.0269 48.183C38.0836 48.0576 38.1521 47.9559 38.2336 47.8796C38.3146 47.8033 38.4132 47.7501 38.529 47.7199C38.6442 47.6897 38.7807 47.6755 38.9361 47.6755H40.0733L40.9322 51.8318H40.0136L39.785 50.6435H38.7021L38.4794 50.1266ZM39.3833 48.3859H39.2492C39.1428 48.3859 39.0572 48.39 38.9904 48.3983C38.9248 48.4072 38.8717 48.4255 38.8315 48.4557C38.7913 48.4859 38.763 48.5284 38.7447 48.5852C38.7263 48.642 38.7086 48.7195 38.6927 48.8194L38.5184 49.9279H39.6408L39.3833 48.3859Z" fill="#FFA500"/>
<path d="M46.3805 47.7048L46.8915 50.7976H46.9465C46.9931 50.7976 47.0209 50.7775 47.0315 50.7372L47.6028 47.7042H48.5811L47.9106 51.0306C47.8734 51.2033 47.8356 51.3405 47.7966 51.4435C47.7564 51.5464 47.7068 51.6274 47.6471 51.6871C47.5875 51.7469 47.516 51.7853 47.4339 51.8037C47.3511 51.8214 47.2513 51.8309 47.1355 51.8309H46.3209L45.8045 49.161H45.7496L45.4123 51.03C45.3756 51.2027 45.3367 51.34 45.2959 51.4429C45.2545 51.5458 45.2043 51.6268 45.1441 51.6866C45.0844 51.7463 45.0135 51.7847 44.9308 51.8031C44.8475 51.8208 44.7483 51.8303 44.6331 51.8303H43.8574L43.0132 47.703H43.9968L44.5775 50.7958H44.6372C44.6833 50.7958 44.7122 50.7757 44.7217 50.7355L45.1937 47.7024H46.3805V47.7048Z" fill="#FFA500"/>
<path d="M52.7676 51.7867H51.8886V50.3051L50.6816 47.6748H51.6706L52.3163 49.4102L52.9815 47.6748H53.9704L52.7682 50.2903V51.7867H52.7676Z" fill="#FFA500"/>
</g>
<defs>
<filter id="filter0_d_175_3398" x="0" y="-0.000244141" width="62.1602" height="59.832" filterUnits="userSpaceOnUse" color-interpolation-filters="sRGB">
<feFlood flood-opacity="0" result="BackgroundImageFix"/>
<feColorMatrix in="SourceAlpha" type="matrix" values="0 0 0 0 0 0 0 0 0 0 0 0 0 0 0 0 0 0 127 0" result="hardAlpha"/>
<feOffset dy="4"/>
<feGaussianBlur stdDeviation="2"/>
<feComposite in2="hardAlpha" operator="out"/>
<feColorMatrix type="matrix" values="0 0 0 0 0 0 0 0 0 0 0 0 0 0 0 0 0 0 0.25 0"/>
<feBlend mode="normal" in2="BackgroundImageFix" result="effect1_dropShadow_175_3398"/>
<feBlend mode="normal" in="SourceGraphic" in2="effect1_dropShadow_175_3398" result="shape"/>
</filter>
</defs>
</svg>
