<svg width="150" height="146" viewBox="0 0 150 146" fill="none" xmlns="http://www.w3.org/2000/svg">
<rect x="2.5" y="2.5" width="144.679" height="140.632" rx="47.5" stroke="#FFA500" stroke-width="5"/>
<g filter="url(#filter0_d_175_1481)">
<path d="M81.0773 29.0001L71.9268 38.1506L81.0773 47.3012L90.2279 38.1506L81.0773 29.0001Z" fill="#FFA500"/>
<path d="M120.132 51.3598L94.285 77.2058L94.268 77.2208H68.422L68.133 76.9348L55.421 64.2368L42.209 77.4478L29 64.2368L42.209 51.0258L55.164 38.0728L81.088 63.9948L106.923 38.1478L120.132 51.3598Z" fill="#FFA500"/>
<path d="M42.6261 103.508L42.0511 102.183C41.5171 100.916 41.2511 99.8068 41.2511 98.8568C41.2511 98.2068 41.4761 97.4518 41.9261 96.5938C42.3761 95.7358 43.1311 95.0898 44.1901 94.6558C45.2481 94.2228 45.9281 93.9388 46.2281 93.8058L49.3541 92.5298L54.7311 107.611H50.3791L47.1281 98.0828C46.4441 98.0828 45.9611 98.3918 45.6781 99.0078C45.6111 99.1418 45.5781 99.3078 45.5781 99.5078C45.5781 99.8418 45.6861 100.267 45.9031 100.784L48.7041 107.611H34.8741C33.1071 107.561 31.6891 106.969 30.6231 105.835C29.8891 105.101 29.4761 104.393 29.3851 103.709C29.2931 103.026 29.2471 100.975 29.2471 97.5568L33.3491 96.2568V101.984C33.5321 102.918 34.0741 103.426 34.9751 103.51H42.6261V103.508Z" fill="#FFA500"/>
<path d="M36.4739 115.485L33.4229 112.459L36.4739 109.383L39.4999 112.459L36.4739 115.485Z" fill="#FFA500"/>
<path d="M41.8508 115.485L38.7998 112.459L41.8508 109.383L44.8768 112.459L41.8508 115.485Z" fill="#FFA500"/>
<path d="M66.11 103.508L64.009 107.585L62.384 107.61C61.283 107.61 60.27 107.347 59.345 106.822C58.42 106.297 57.669 105.555 57.094 104.596C56.519 103.637 56.231 102.483 56.231 101.132C56.231 99.8479 56.519 98.7309 57.094 97.7809C57.669 96.8309 58.42 96.0889 59.345 95.5549C60.27 95.0209 61.283 94.7549 62.384 94.7549H70.187V108.71C70.187 110.177 69.678 111.402 68.662 112.387C67.695 113.37 66.536 113.887 65.186 113.937H58.984L57.208 109.861H65.011C65.228 109.861 65.386 109.836 65.486 109.786C65.586 109.736 65.6859 109.652 65.7859 109.536C66.0189 109.302 66.136 109.027 66.136 108.711L66.11 103.508ZM66.11 103.508V98.8559H62.384C61.767 98.8559 61.2669 99.0649 60.8829 99.4809C60.499 99.8979 60.308 100.448 60.308 101.132C60.308 101.866 60.499 102.445 60.8829 102.87C61.2659 103.295 61.767 103.508 62.384 103.508H66.11Z" fill="#FFA500"/>
<path d="M120.679 91.129L117.653 88.053L114.602 91.129L117.653 94.205L120.679 91.129Z" fill="#FFA500"/>
<path d="M116.052 102.408C116.052 102.725 115.943 102.992 115.727 103.208C115.51 103.408 115.243 103.508 114.927 103.508H111.876H111.176H101.273H100.447H90.669H89.844H79.839H79.239H77.389C77.072 103.508 76.805 103.392 76.589 103.158C76.389 102.958 76.289 102.708 76.289 102.408L76.239 86.5769L72.188 88.1019V102.407C72.188 103.858 72.696 105.087 73.713 106.096C74.73 107.105 75.955 107.609 77.39 107.609H79.24H79.84H89.843H90.668H100.446H101.272H111.175H111.875H114.926C116.36 107.609 117.577 107.101 118.577 106.083C119.594 105.083 120.102 103.857 120.102 102.407V94.6289L116.051 96.1549L116.052 102.408Z" fill="#FFA500"/>
<path d="M78.6301 114.967H78.7051C78.8061 114.967 78.8871 114.954 78.9481 114.929C79.0111 114.904 79.0611 114.862 79.1041 114.803C79.1461 114.744 79.1781 114.67 79.2001 114.58C79.2231 114.49 79.2491 114.378 79.2761 114.244L80.1761 109.595H81.7561L80.8991 113.9C80.8151 114.269 80.7321 114.614 80.6511 114.933C80.5691 115.253 80.4581 115.534 80.3151 115.774C80.1711 116.015 79.9851 116.203 79.7551 116.337C79.5471 116.466 79.2811 116.536 78.9561 116.547H77.3671L77.2321 115.85L76.2491 111.175H76.1741C76.0721 111.175 75.9911 111.188 75.9301 111.213C75.8691 111.238 75.8171 111.28 75.7741 111.339C75.7331 111.399 75.7001 111.473 75.6781 111.562C75.6561 111.652 75.6311 111.764 75.6031 111.899L74.7031 116.547H73.1221L73.9801 112.243C74.0641 111.873 74.1471 111.528 74.2281 111.209C74.3091 110.89 74.4211 110.609 74.5641 110.368C74.7071 110.127 74.8931 109.936 75.1231 109.797C75.3311 109.673 75.5971 109.607 75.9221 109.595H77.5101L77.6451 110.292L78.6301 114.967Z" fill="#FFA500"/>
<path d="M87.3638 113.749L86.8248 116.632H85.2778L86.3538 111.278C86.4218 110.947 86.5018 110.675 86.5978 110.463C86.6938 110.251 86.8098 110.079 86.9478 109.95C87.0848 109.821 87.2518 109.731 87.4478 109.68C87.6428 109.629 87.8738 109.605 88.1368 109.605H90.0618L91.5158 116.632H89.9608L89.5738 114.623H87.7408L87.3638 113.749ZM88.8938 110.806H88.6668C88.4868 110.806 88.3418 110.813 88.2288 110.827C88.1178 110.842 88.0278 110.873 87.9598 110.924C87.8918 110.975 87.8438 111.047 87.8128 111.143C87.7818 111.239 87.7518 111.37 87.7248 111.539L87.4298 113.413H89.3298L88.8938 110.806Z" fill="#FFA500"/>
<path d="M100.739 109.654L101.604 114.883H101.697C101.776 114.883 101.823 114.849 101.841 114.781L102.808 109.653H104.464L103.329 115.277C103.266 115.569 103.202 115.801 103.136 115.975C103.068 116.149 102.984 116.286 102.883 116.387C102.782 116.488 102.661 116.553 102.522 116.584C102.382 116.614 102.213 116.63 102.017 116.63H100.638L99.7641 112.116H99.6711L99.1001 115.276C99.0381 115.568 98.9721 115.8 98.9031 115.974C98.8331 116.148 98.7481 116.285 98.6461 116.386C98.5451 116.487 98.4251 116.552 98.2851 116.583C98.1441 116.613 97.9761 116.629 97.7811 116.629H96.4681L95.0391 109.651H96.7041L97.6871 114.88H97.7881C97.8661 114.88 97.9151 114.846 97.9311 114.778L98.7301 109.65H100.739V109.654Z" fill="#FFA500"/>
<path d="M111.55 116.556H110.062V114.051L108.019 109.604H109.693L110.786 112.538L111.912 109.604H113.586L111.551 114.026V116.556H111.55Z" fill="#FFA500"/>
<path d="M78.6301 114.967H78.7051C78.8061 114.967 78.8871 114.954 78.9481 114.929C79.0111 114.904 79.0611 114.862 79.1041 114.803C79.1461 114.744 79.1781 114.67 79.2001 114.58C79.2231 114.49 79.2491 114.378 79.2761 114.244L80.1761 109.595H81.7561L80.8991 113.9C80.8151 114.269 80.7321 114.614 80.6511 114.933C80.5691 115.253 80.4581 115.534 80.3151 115.774C80.1711 116.015 79.9851 116.203 79.7551 116.337C79.5471 116.466 79.2811 116.536 78.9561 116.547H77.3671L77.2321 115.85L76.2491 111.175H76.1741C76.0721 111.175 75.9911 111.188 75.9301 111.213C75.8691 111.238 75.8171 111.28 75.7741 111.339C75.7331 111.399 75.7001 111.473 75.6781 111.562C75.6561 111.652 75.6311 111.764 75.6031 111.899L74.7031 116.547H73.1221L73.9801 112.243C74.0641 111.873 74.1471 111.528 74.2281 111.209C74.3091 110.89 74.4211 110.609 74.5641 110.368C74.7071 110.127 74.8931 109.936 75.1231 109.797C75.3311 109.673 75.5971 109.607 75.9221 109.595H77.5101L77.6451 110.292L78.6301 114.967Z" fill="#FFA500"/>
<path d="M87.3638 113.749L86.8248 116.632H85.2778L86.3538 111.278C86.4218 110.947 86.5018 110.675 86.5978 110.463C86.6938 110.251 86.8098 110.079 86.9478 109.95C87.0848 109.821 87.2518 109.731 87.4478 109.68C87.6428 109.629 87.8738 109.605 88.1368 109.605H90.0618L91.5158 116.632H89.9608L89.5738 114.623H87.7408L87.3638 113.749ZM88.8938 110.806H88.6668C88.4868 110.806 88.3418 110.813 88.2288 110.827C88.1178 110.842 88.0278 110.873 87.9598 110.924C87.8918 110.975 87.8438 111.047 87.8128 111.143C87.7818 111.239 87.7518 111.37 87.7248 111.539L87.4298 113.413H89.3298L88.8938 110.806Z" fill="#FFA500"/>
<path d="M100.739 109.654L101.604 114.883H101.697C101.776 114.883 101.823 114.849 101.841 114.781L102.808 109.653H104.464L103.329 115.277C103.266 115.569 103.202 115.801 103.136 115.975C103.068 116.149 102.984 116.286 102.883 116.387C102.782 116.488 102.661 116.553 102.522 116.584C102.382 116.614 102.213 116.63 102.017 116.63H100.638L99.7641 112.116H99.6711L99.1001 115.276C99.0381 115.568 98.9721 115.8 98.9031 115.974C98.8331 116.148 98.7481 116.285 98.6461 116.386C98.5451 116.487 98.4251 116.552 98.2851 116.583C98.1441 116.613 97.9761 116.629 97.7811 116.629H96.4681L95.0391 109.651H96.7041L97.6871 114.88H97.7881C97.8661 114.88 97.9151 114.846 97.9311 114.778L98.7301 109.65H100.739V109.654Z" fill="#FFA500"/>
<path d="M111.55 116.556H110.062V114.051L108.019 109.604H109.693L110.786 112.538L111.912 109.604H113.586L111.551 114.026V116.556H111.55Z" fill="#FFA500"/>
<path d="M78.6301 114.967H78.7051C78.8061 114.967 78.8871 114.954 78.9481 114.929C79.0111 114.904 79.0611 114.862 79.1041 114.803C79.1461 114.744 79.1781 114.67 79.2001 114.58C79.2231 114.49 79.2491 114.378 79.2761 114.244L80.1761 109.595H81.7561L80.8991 113.9C80.8151 114.269 80.7321 114.614 80.6511 114.933C80.5691 115.253 80.4581 115.534 80.3151 115.774C80.1711 116.015 79.9851 116.203 79.7551 116.337C79.5471 116.466 79.2811 116.536 78.9561 116.547H77.3671L77.2321 115.85L76.2491 111.175H76.1741C76.0721 111.175 75.9911 111.188 75.9301 111.213C75.8691 111.238 75.8171 111.28 75.7741 111.339C75.7331 111.399 75.7001 111.473 75.6781 111.562C75.6561 111.652 75.6311 111.764 75.6031 111.899L74.7031 116.547H73.1221L73.9801 112.243C74.0641 111.873 74.1471 111.528 74.2281 111.209C74.3091 110.89 74.4211 110.609 74.5641 110.368C74.7071 110.127 74.8931 109.936 75.1231 109.797C75.3311 109.673 75.5971 109.607 75.9221 109.595H77.5101L77.6451 110.292L78.6301 114.967Z" fill="#FFA500"/>
<path d="M87.3638 113.749L86.8248 116.632H85.2778L86.3538 111.278C86.4218 110.947 86.5018 110.675 86.5978 110.463C86.6938 110.251 86.8098 110.079 86.9478 109.95C87.0848 109.821 87.2518 109.731 87.4478 109.68C87.6428 109.629 87.8738 109.605 88.1368 109.605H90.0618L91.5158 116.632H89.9608L89.5738 114.623H87.7408L87.3638 113.749ZM88.8938 110.806H88.6668C88.4868 110.806 88.3418 110.813 88.2288 110.827C88.1178 110.842 88.0278 110.873 87.9598 110.924C87.8918 110.975 87.8438 111.047 87.8128 111.143C87.7818 111.239 87.7518 111.37 87.7248 111.539L87.4298 113.413H89.3298L88.8938 110.806Z" fill="#FFA500"/>
<path d="M100.739 109.654L101.604 114.883H101.697C101.776 114.883 101.823 114.849 101.841 114.781L102.808 109.653H104.464L103.329 115.277C103.266 115.569 103.202 115.801 103.136 115.975C103.068 116.149 102.984 116.286 102.883 116.387C102.782 116.488 102.661 116.553 102.522 116.584C102.382 116.614 102.213 116.63 102.017 116.63H100.638L99.7641 112.116H99.6711L99.1001 115.276C99.0381 115.568 98.9721 115.8 98.9031 115.974C98.8331 116.148 98.7481 116.285 98.6461 116.386C98.5451 116.487 98.4251 116.552 98.2851 116.583C98.1441 116.613 97.9761 116.629 97.7811 116.629H96.4681L95.0391 109.651H96.7041L97.6871 114.88H97.7881C97.8661 114.88 97.9151 114.846 97.9311 114.778L98.7301 109.65H100.739V109.654Z" fill="#FFA500"/>
<path d="M111.55 116.556H110.062V114.051L108.019 109.604H109.693L110.786 112.538L111.912 109.604H113.586L111.551 114.026V116.556H111.55Z" fill="#FFA500"/>
</g>
<defs>
<filter id="filter0_d_175_1481" x="25" y="29" width="99.6792" height="95.6318" filterUnits="userSpaceOnUse" color-interpolation-filters="sRGB">
<feFlood flood-opacity="0" result="BackgroundImageFix"/>
<feColorMatrix in="SourceAlpha" type="matrix" values="0 0 0 0 0 0 0 0 0 0 0 0 0 0 0 0 0 0 127 0" result="hardAlpha"/>
<feOffset dy="4"/>
<feGaussianBlur stdDeviation="2"/>
<feComposite in2="hardAlpha" operator="out"/>
<feColorMatrix type="matrix" values="0 0 0 0 0 0 0 0 0 0 0 0 0 0 0 0 0 0 0.25 0"/>
<feBlend mode="normal" in2="BackgroundImageFix" result="effect1_dropShadow_175_1481"/>
<feBlend mode="normal" in="SourceGraphic" in2="effect1_dropShadow_175_1481" result="shape"/>
</filter>
</defs>
</svg>
