<svg width="14" height="14" viewBox="0 0 14 14" fill="none" xmlns="http://www.w3.org/2000/svg">
<path d="M13.4185 5.41092L9.26153 4.81782L7.40326 1.11936C7.3525 1.0181 7.269 0.936127 7.16585 0.8863C6.90717 0.760928 6.59282 0.865404 6.46348 1.11936L4.60521 4.81782L0.448251 5.41092C0.333644 5.427 0.228861 5.48004 0.148636 5.5604C0.0516486 5.65827 -0.0017959 5.78993 4.60817e-05 5.92646C0.00188807 6.06299 0.0588658 6.19321 0.158459 6.28852L3.16607 9.16724L2.45551 13.2322C2.43885 13.3267 2.44951 13.424 2.48628 13.5129C2.52305 13.6018 2.58446 13.6788 2.66355 13.7352C2.74264 13.7916 2.83625 13.8251 2.93375 13.832C3.03125 13.8388 3.12875 13.8186 3.21519 13.7738L6.93337 11.8547L10.6515 13.7738C10.7531 13.8269 10.8709 13.8446 10.9839 13.8253C11.2688 13.7771 11.4603 13.5118 11.4112 13.2322L10.7007 9.16724L13.7083 6.28852C13.7901 6.20976 13.8442 6.10689 13.8605 5.99438C13.9047 5.7131 13.705 5.45271 13.4185 5.41092Z" fill="#EEA651"/>
</svg>
