<svg width="26" height="26" viewBox="0 0 26 26" fill="none" xmlns="http://www.w3.org/2000/svg">
<path d="M12.8889 0C10.3397 0 7.84778 0.75592 5.72821 2.17217C3.60864 3.58842 1.95664 5.60139 0.981114 7.95652C0.00558451 10.3117 -0.249658 12.9032 0.247662 15.4034C0.744983 17.9036 1.97253 20.2002 3.77507 22.0027C5.57762 23.8052 7.8742 25.0328 10.3744 25.5301C12.8746 26.0274 15.4661 25.7722 17.8213 24.7967C20.1764 23.8211 22.1894 22.1691 23.6056 20.0496C25.0219 17.93 25.7778 15.4381 25.7778 12.8889C25.7778 9.47054 24.4198 6.1922 22.0027 3.77507C19.5856 1.35793 16.3072 0 12.8889 0ZM21.3069 8.56305L10.7219 19.14L4.47084 12.8889C4.25719 12.6752 4.13717 12.3855 4.13717 12.0833C4.13717 11.7812 4.25719 11.4914 4.47084 11.2778C4.68448 11.0641 4.97425 10.9441 5.27639 10.9441C5.57854 10.9441 5.8683 11.0641 6.08195 11.2778L10.7381 15.9339L19.7119 6.96805C19.9256 6.75441 20.2154 6.63438 20.5175 6.63438C20.8196 6.63438 21.1094 6.75441 21.3231 6.96805C21.5367 7.1817 21.6567 7.47147 21.6567 7.77361C21.6567 8.07575 21.5367 8.36552 21.3231 8.57916L21.3069 8.56305Z" fill="#678C3A"/>
</svg>
