<svg width="22" height="22" viewBox="0 0 22 22" fill="none" xmlns="http://www.w3.org/2000/svg">
<path d="M9.7509 1.44982C10.4509 0.859824 11.5809 0.859824 12.2609 1.44982L13.8409 2.79982C14.1409 3.04982 14.7109 3.25982 15.1109 3.25982H16.8109C17.8709 3.25982 18.7409 4.12982 18.7409 5.18983V6.88983C18.7409 7.28983 18.9509 7.84983 19.2009 8.14983L20.5509 9.72981C21.1409 10.4298 21.1409 11.5598 20.5509 12.2398L19.2009 13.8198C18.9509 14.1198 18.7409 14.6798 18.7409 15.0798V16.7798C18.7409 17.8398 17.8709 18.7098 16.8109 18.7098H15.1109C14.7109 18.7098 14.1509 18.9198 13.8509 19.1698L12.2709 20.5198C11.5709 21.1098 10.4409 21.1098 9.7609 20.5198L8.18086 19.1698C7.88086 18.9198 7.31086 18.7098 6.92086 18.7098H5.17086C4.11086 18.7098 3.24086 17.8398 3.24086 16.7798V15.0698C3.24086 14.6798 3.04086 14.1098 2.79086 13.8198L1.44086 12.2298C0.860859 11.5398 0.860859 10.4198 1.44086 9.72981L2.79086 8.13983C3.04086 7.83983 3.24086 7.27983 3.24086 6.88983V5.19983C3.24086 4.13983 4.11086 3.26982 5.17086 3.26982H6.90086C7.30086 3.26982 7.86086 3.05982 8.16086 2.80982L9.7509 1.44982Z" stroke="white" stroke-width="2" stroke-linecap="round" stroke-linejoin="round"/>
</svg>
